<svg width="18" height="17" viewBox="0 0 18 17" fill="none" xmlns="http://www.w3.org/2000/svg">
<path d="M10.5 4.55078V4.55078C8.84319 4.55078 7.50012 5.89397 7.50028 7.55078V7.55078L7.50024 8.05078C7.50011 9.7076 8.84318 11.0508 10.5 11.0508V11.0508M7.00028 8.55078H9.5M9.5 7.05078H7M1 13.0508H3.5M4.5 10.0508H1.5M6.00028 2.55078H3M3.5 6.05078H1M5.5 6.05078H5M1.5 2.55078H1" stroke="#3D3D3D" stroke-linecap="round"/>
<path d="M8.5 1.05078H15C16.1046 1.05078 17 1.94621 17 3.05078V8.05078V13.0508C17 14.1554 16.1046 15.0508 15 15.0508H3M8 2.80078H11.6618C12.1247 2.80078 12.5 3.17605 12.5 3.63897V3.63897C12.5 4.42677 13.0586 5.11048 13.8282 5.27883V5.27883C14.2175 5.36398 14.5 5.70977 14.5 6.10821V9.55585C14.5 9.95429 14.2175 10.3001 13.8282 10.3852V10.3852C13.0586 10.5536 12.5 11.2373 12.5 12.0251V12.0251C12.5 12.488 12.1247 12.8633 11.6618 12.8633H5.5" stroke="#3D3D3D" stroke-linecap="round"/>
</svg>
