<svg width="20" height="21" viewBox="0 0 20 21" fill="none" xmlns="http://www.w3.org/2000/svg">
<g clip-path="url(#clip0_10578_30311)">
<path d="M10 1.85328C12.67 1.85328 12.9867 1.86328 14.0417 1.91161C16.7517 2.03495 18.0175 3.32078 18.1408 6.01078C18.1892 7.06495 18.1983 7.38161 18.1983 10.0516C18.1983 12.7224 18.1883 13.0383 18.1408 14.0924C18.0167 16.7799 16.7542 18.0683 14.0417 18.1916C12.9867 18.2399 12.6717 18.2499 10 18.2499C7.33 18.2499 7.01333 18.2399 5.95917 18.1916C3.2425 18.0674 1.98333 16.7758 1.86 14.0916C1.81167 13.0374 1.80167 12.7216 1.80167 10.0508C1.80167 7.38078 1.8125 7.06495 1.86 6.00995C1.98417 3.32078 3.24667 2.03411 5.95917 1.91078C7.01417 1.86328 7.33 1.85328 10 1.85328ZM10 0.0507813C7.28417 0.0507813 6.94417 0.0624479 5.8775 0.110781C2.24583 0.277448 0.2275 2.29245 0.0608333 5.92745C0.0116667 6.99495 0 7.33495 0 10.0508C0 12.7666 0.0116667 13.1074 0.06 14.1741C0.226667 17.8058 2.24167 19.8241 5.87667 19.9908C6.94417 20.0391 7.28417 20.0508 10 20.0508C12.7158 20.0508 13.0567 20.0391 14.1233 19.9908C17.7517 19.8241 19.775 17.8091 19.9392 14.1741C19.9883 13.1074 20 12.7666 20 10.0508C20 7.33495 19.9883 6.99495 19.94 5.92828C19.7767 2.29995 17.7592 0.278281 14.1242 0.111615C13.0567 0.0624479 12.7158 0.0507813 10 0.0507813ZM10 4.91578C7.16417 4.91578 4.865 7.21495 4.865 10.0508C4.865 12.8866 7.16417 15.1866 10 15.1866C12.8358 15.1866 15.135 12.8874 15.135 10.0508C15.135 7.21495 12.8358 4.91578 10 4.91578ZM10 13.3841C8.15917 13.3841 6.66667 11.8924 6.66667 10.0508C6.66667 8.20995 8.15917 6.71745 10 6.71745C11.8408 6.71745 13.3333 8.20995 13.3333 10.0508C13.3333 11.8924 11.8408 13.3841 10 13.3841ZM15.3383 3.51328C14.675 3.51328 14.1375 4.05078 14.1375 4.71328C14.1375 5.37578 14.675 5.91328 15.3383 5.91328C16.0008 5.91328 16.5375 5.37578 16.5375 4.71328C16.5375 4.05078 16.0008 3.51328 15.3383 3.51328Z" fill="#3D3D3D"/>
</g>
<defs>
<clipPath id="clip0_10578_30311">
<rect width="20" height="20" fill="white" transform="translate(0 0.0507812)"/>
</clipPath>
</defs>
</svg>
