<svg width="56" height="42" viewBox="0 0 56 42" fill="none" xmlns="http://www.w3.org/2000/svg">
<g clip-path="url(#clip0_10579_31998)">
<path d="M10.6661 7.99976C6.25537 7.99976 2.66652 11.5302 2.66652 15.8691V20.0073H0V25.2565H2.66652V33.8714H7.99957V25.2565H10.6661V20.0073H7.99957V15.8691C7.99957 14.4228 9.19585 13.246 10.6661 13.246C12.1363 13.246 13.3326 14.4228 13.3326 15.8691H18.6687C18.6687 11.5302 15.0799 7.99976 10.6691 7.99976H10.6661Z" fill="#FF637D"/>
<path d="M18.6656 20.0073H13.3296V33.8684H18.6656V20.0073Z" fill="#FF637D"/>
<path d="M26.6683 8.01489H21.3322V33.8716H26.6683V8.01489Z" fill="#FF637D"/>
<path d="M34.6709 8.01489H29.3348V33.8716H34.6709V8.01489Z" fill="#FF637D"/>
<path d="M42.6674 8.13159H37.3344V21.9927H42.6674V8.13159Z" fill="#FF637D"/>
<path d="M56 16.7465H53.3335V8.13159H48.0004V16.7465H45.3339V21.9957H48.0004V26.134C48.0004 27.5802 46.8041 28.757 45.3339 28.757C43.8637 28.757 42.6674 27.5802 42.6674 26.134H37.3313C37.3313 30.4728 40.9201 34.0032 45.3309 34.0032C49.7416 34.0032 53.3304 30.4728 53.3304 26.134V21.9957H55.997V16.7465H56Z" fill="#FF637D"/>
<path d="M40.0039 5.50547C41.4772 5.50547 42.6704 4.33167 42.6704 2.88238C42.6704 1.43308 41.4772 0.259277 40.0039 0.259277C38.5306 0.259277 37.3374 1.43308 37.3374 2.88238C37.3374 4.33167 38.5306 5.50547 40.0039 5.50547Z" fill="#FF637D"/>
<path d="M15.7648 36.4946C14.2915 36.4946 13.0982 37.6684 13.0982 39.1177C13.0982 40.567 14.2915 41.7408 15.7648 41.7408C17.238 41.7408 18.4313 40.567 18.4313 39.1177C18.4313 37.6684 17.238 36.4946 15.7648 36.4946Z" fill="#FF637D"/>
</g>
<defs>
<clipPath id="clip0_10579_31998">
<rect width="56" height="41.4815" fill="white" transform="translate(0 0.259277)"/>
</clipPath>
</defs>
</svg>
