<svg width="18" height="18" viewBox="0 0 18 18" fill="none" xmlns="http://www.w3.org/2000/svg">
<path d="M9.26838 1.099L15.8138 3.99201C16.0684 4.10451 16.272 4.44203 16.272 4.73937V7.40742C16.272 7.84941 15.9447 8.21104 15.5447 8.21104H2.45384C2.05384 8.21104 1.72656 7.84941 1.72656 7.40742V4.73937C1.72656 4.44203 1.9302 4.10451 2.18474 3.99201L8.7302 1.099C8.87565 1.03471 9.12293 1.03471 9.26838 1.099Z" stroke="#3D3D3D" stroke-miterlimit="10" stroke-linecap="round" stroke-linejoin="round"/>
<path d="M16.272 17.0504H1.72656V14.6396C1.72656 14.1976 2.05384 13.8359 2.45384 13.8359H15.5447C15.9447 13.8359 16.272 14.1976 16.272 14.6396V17.0504Z" stroke="#3D3D3D" stroke-miterlimit="10" stroke-linecap="round" stroke-linejoin="round"/>
<path d="M3.17969 13.8363V8.21094" stroke="#3D3D3D" stroke-miterlimit="10" stroke-linecap="round" stroke-linejoin="round"/>
<path d="M6.08984 13.8363V8.21094" stroke="#3D3D3D" stroke-miterlimit="10" stroke-linecap="round" stroke-linejoin="round"/>
<path d="M9 13.8363V8.21094" stroke="#3D3D3D" stroke-miterlimit="10" stroke-linecap="round" stroke-linejoin="round"/>
<path d="M11.9102 13.8363V8.21094" stroke="#3D3D3D" stroke-miterlimit="10" stroke-linecap="round" stroke-linejoin="round"/>
<path d="M14.8203 13.8363V8.21094" stroke="#3D3D3D" stroke-miterlimit="10" stroke-linecap="round" stroke-linejoin="round"/>
<path d="M1 17.0508H17" stroke="#3D3D3D" stroke-miterlimit="10" stroke-linecap="round" stroke-linejoin="round"/>
<path d="M9.00107 6.19992C9.60354 6.19992 10.092 5.66024 10.092 4.99449C10.092 4.32875 9.60354 3.78906 9.00107 3.78906C8.39859 3.78906 7.91016 4.32875 7.91016 4.99449C7.91016 5.66024 8.39859 6.19992 9.00107 6.19992Z" stroke="#3D3D3D" stroke-miterlimit="10" stroke-linecap="round" stroke-linejoin="round"/>
</svg>
