<svg width="21" height="20" viewBox="0 0 21 20" fill="none" xmlns="http://www.w3.org/2000/svg">
<g clip-path="url(#clip0_10579_32505)">
<path d="M10.5 1.8025C13.17 1.8025 13.4867 1.8125 14.5417 1.86083C17.2517 1.98417 18.5175 3.27 18.6408 5.96C18.6892 7.01417 18.6983 7.33083 18.6983 10.0008C18.6983 12.6717 18.6883 12.9875 18.6408 14.0417C18.5167 16.7292 17.2542 18.0175 14.5417 18.1408C13.4867 18.1892 13.1717 18.1992 10.5 18.1992C7.83 18.1992 7.51333 18.1892 6.45917 18.1408C3.7425 18.0167 2.48333 16.725 2.36 14.0408C2.31167 12.9867 2.30167 12.6708 2.30167 10C2.30167 7.33 2.3125 7.01417 2.36 5.95917C2.48417 3.27 3.74667 1.98333 6.45917 1.86C7.51417 1.8125 7.83 1.8025 10.5 1.8025ZM10.5 0C7.78417 0 7.44417 0.0116667 6.3775 0.06C2.74583 0.226667 0.7275 2.24167 0.560833 5.87667C0.511667 6.94417 0.5 7.28417 0.5 10C0.5 12.7158 0.511667 13.0567 0.56 14.1233C0.726667 17.755 2.74167 19.7733 6.37667 19.94C7.44417 19.9883 7.78417 20 10.5 20C13.2158 20 13.5567 19.9883 14.6233 19.94C18.2517 19.7733 20.275 17.7583 20.4392 14.1233C20.4883 13.0567 20.5 12.7158 20.5 10C20.5 7.28417 20.4883 6.94417 20.44 5.8775C20.2767 2.24917 18.2592 0.2275 14.6242 0.0608333C13.5567 0.0116667 13.2158 0 10.5 0ZM10.5 4.865C7.66417 4.865 5.365 7.16417 5.365 10C5.365 12.8358 7.66417 15.1358 10.5 15.1358C13.3358 15.1358 15.635 12.8367 15.635 10C15.635 7.16417 13.3358 4.865 10.5 4.865ZM10.5 13.3333C8.65917 13.3333 7.16667 11.8417 7.16667 10C7.16667 8.15917 8.65917 6.66667 10.5 6.66667C12.3408 6.66667 13.8333 8.15917 13.8333 10C13.8333 11.8417 12.3408 13.3333 10.5 13.3333ZM15.8383 3.4625C15.175 3.4625 14.6375 4 14.6375 4.6625C14.6375 5.325 15.175 5.8625 15.8383 5.8625C16.5008 5.8625 17.0375 5.325 17.0375 4.6625C17.0375 4 16.5008 3.4625 15.8383 3.4625Z" fill="#3D3D3D"/>
</g>
<defs>
<clipPath id="clip0_10579_32505">
<rect width="20" height="20" fill="white" transform="translate(0.5)"/>
</clipPath>
</defs>
</svg>
