<svg width="63" height="47" viewBox="0 0 63 47" fill="none" xmlns="http://www.w3.org/2000/svg">
<g clip-path="url(#clip0_10579_32472)">
<path d="M12.3089 8.60974C7.42559 8.60974 3.45222 12.5366 3.45222 17.3627V21.9657H0.5V27.8043H3.45222V37.3866H9.35666V27.8043H12.3089V21.9657H9.35666V17.3627C9.35666 15.754 10.6811 14.445 12.3089 14.445C13.9366 14.445 15.2611 15.754 15.2611 17.3627H21.1689C21.1689 12.5366 17.1955 8.60974 12.3123 8.60974H12.3089Z" fill="#FF637D"/>
<path d="M21.1655 21.9656H15.2577V37.3832H21.1655V21.9656Z" fill="#FF637D"/>
<path d="M30.0256 8.6264H24.1178V37.3866H30.0256V8.6264Z" fill="#FF637D"/>
<path d="M38.8856 8.6264H32.9778V37.3866H38.8856V8.6264Z" fill="#FF637D"/>
<path d="M47.7389 8.75629H41.8345V24.1739H47.7389V8.75629Z" fill="#FF637D"/>
<path d="M62.5 18.3386H59.5478V8.75629H53.6433V18.3386H50.6911V24.1772H53.6433V28.7802C53.6433 30.3889 52.3188 31.6978 50.6911 31.6978C49.0633 31.6978 47.7389 30.3889 47.7389 28.7802H41.8311C41.8311 33.6063 45.8044 37.5331 50.6877 37.5331C55.571 37.5331 59.5444 33.6063 59.5444 28.7802V24.1772H62.4966V18.3386H62.5Z" fill="#FF637D"/>
<path d="M44.7901 5.8353C46.4212 5.8353 47.7423 4.52969 47.7423 2.91765C47.7423 1.30562 46.4212 0 44.7901 0C43.159 0 41.8379 1.30562 41.8379 2.91765C41.8379 4.52969 43.159 5.8353 44.7901 5.8353Z" fill="#FF637D"/>
<path d="M17.9538 40.3042C16.3227 40.3042 15.0016 41.6098 15.0016 43.2219C15.0016 44.8339 16.3227 46.1395 17.9538 46.1395C19.5849 46.1395 20.906 44.8339 20.906 43.2219C20.906 41.6098 19.5849 40.3042 17.9538 40.3042Z" fill="#FF637D"/>
</g>
<defs>
<clipPath id="clip0_10579_32472">
<rect width="62" height="46.1395" fill="white" transform="translate(0.5)"/>
</clipPath>
</defs>
</svg>
