<svg width="56" height="42" viewBox="0 0 56 42" fill="none" xmlns="http://www.w3.org/2000/svg">
<g clip-path="url(#clip0_10578_30220)">
<path d="M10.6661 8C6.25537 8 2.66652 11.5304 2.66652 15.8693V20.0076H0V25.2568H2.66652V33.8717H7.99957V25.2568H10.6661V20.0076H7.99957V15.8693C7.99957 14.423 9.19585 13.2462 10.6661 13.2462C12.1363 13.2462 13.3326 14.423 13.3326 15.8693H18.6687C18.6687 11.5304 15.0799 8 10.6691 8H10.6661Z" fill="#FF637D"/>
<path d="M18.6662 20.0078H13.3301V33.8689H18.6662V20.0078Z" fill="#FF637D"/>
<path d="M26.6681 8.01172H21.332V33.8684H26.6681V8.01172Z" fill="#FF637D"/>
<path d="M34.6701 8.01172H29.334V33.8684H34.6701V8.01172Z" fill="#FF637D"/>
<path d="M42.667 8.12891H37.334V21.99H42.667V8.12891Z" fill="#FF637D"/>
<path d="M56.0007 16.7438H53.3342V8.12891H48.0012V16.7438H45.3346V21.993H48.0012V26.1313C48.0012 27.5776 46.8049 28.7544 45.3346 28.7544C43.8644 28.7544 42.6681 27.5776 42.6681 26.1313H37.332C37.332 30.4702 40.9209 34.0006 45.3316 34.0006C49.7423 34.0006 53.3312 30.4702 53.3312 26.1313V21.993H55.9977V16.7438H56.0007Z" fill="#FF637D"/>
<path d="M40.0044 5.50401C41.4777 5.50401 42.6709 4.3302 42.6709 2.88091C42.6709 1.43162 41.4777 0.257812 40.0044 0.257812C38.5311 0.257812 37.3379 1.43162 37.3379 2.88091C37.3379 4.3302 38.5311 5.50401 40.0044 5.50401Z" fill="#FF637D"/>
<path d="M15.7642 36.4922C14.2909 36.4922 13.0977 37.666 13.0977 39.1153C13.0977 40.5646 14.2909 41.7384 15.7642 41.7384C17.2375 41.7384 18.4307 40.5646 18.4307 39.1153C18.4307 37.666 17.2375 36.4922 15.7642 36.4922Z" fill="#FF637D"/>
</g>
<defs>
<clipPath id="clip0_10578_30220">
<rect width="56" height="41.4815" fill="white" transform="translate(0 0.257812)"/>
</clipPath>
</defs>
</svg>
