<svg width="18" height="16" viewBox="0 0 18 16" fill="none" xmlns="http://www.w3.org/2000/svg">
<path d="M10.5 4.5V4.5C8.84319 4.5 7.50012 5.84319 7.50028 7.5V7.5L7.50024 8C7.50011 9.65682 8.84318 11 10.5 11V11M7.00028 8.5H9.5M9.5 7H7M1 13H3.5M4.5 10H1.5M6.00028 2.5H3M3.5 6H1M5.5 6H5M1.5 2.5H1" stroke="#3F4B65" stroke-linecap="round"/>
<path d="M8.5 1H15C16.1046 1 17 1.89543 17 3V8V13C17 14.1046 16.1046 15 15 15H3M8 2.75H11.6618C12.1247 2.75 12.5 3.12527 12.5 3.58819V3.58819C12.5 4.37599 13.0586 5.0597 13.8282 5.22805V5.22805C14.2175 5.3132 14.5 5.65899 14.5 6.05743V9.50507C14.5 9.90351 14.2175 10.2493 13.8282 10.3344V10.3344C13.0586 10.5028 12.5 11.1865 12.5 11.9743V11.9743C12.5 12.4372 12.1247 12.8125 11.6618 12.8125H5.5" stroke="#3F4B65" stroke-linecap="round"/>
</svg>
