<svg width="18" height="18" viewBox="0 0 18 18" fill="none" xmlns="http://www.w3.org/2000/svg">
<path d="M9.26838 1.04822L15.8138 3.94123C16.0684 4.05373 16.272 4.39125 16.272 4.68859V7.35664C16.272 7.79863 15.9447 8.16026 15.5447 8.16026H2.45384C2.05384 8.16026 1.72656 7.79863 1.72656 7.35664V4.68859C1.72656 4.39125 1.9302 4.05373 2.18474 3.94123L8.7302 1.04822C8.87565 0.983928 9.12293 0.983928 9.26838 1.04822Z" stroke="#3F4B65" stroke-miterlimit="10" stroke-linecap="round" stroke-linejoin="round"/>
<path d="M16.272 16.9996H1.72656V14.5888C1.72656 14.1468 2.05384 13.7852 2.45384 13.7852H15.5447C15.9447 13.7852 16.272 14.1468 16.272 14.5888V16.9996Z" stroke="#3F4B65" stroke-miterlimit="10" stroke-linecap="round" stroke-linejoin="round"/>
<path d="M3.17969 13.7855V8.16016" stroke="#3F4B65" stroke-miterlimit="10" stroke-linecap="round" stroke-linejoin="round"/>
<path d="M6.08984 13.7855V8.16016" stroke="#3F4B65" stroke-miterlimit="10" stroke-linecap="round" stroke-linejoin="round"/>
<path d="M9 13.7855V8.16016" stroke="#3F4B65" stroke-miterlimit="10" stroke-linecap="round" stroke-linejoin="round"/>
<path d="M11.9102 13.7855V8.16016" stroke="#3F4B65" stroke-miterlimit="10" stroke-linecap="round" stroke-linejoin="round"/>
<path d="M14.8203 13.7855V8.16016" stroke="#3F4B65" stroke-miterlimit="10" stroke-linecap="round" stroke-linejoin="round"/>
<path d="M1 17H17" stroke="#3F4B65" stroke-miterlimit="10" stroke-linecap="round" stroke-linejoin="round"/>
<path d="M9.00107 6.15305C9.60354 6.15305 10.092 5.61336 10.092 4.94762C10.092 4.28187 9.60354 3.74219 9.00107 3.74219C8.39859 3.74219 7.91016 4.28187 7.91016 4.94762C7.91016 5.61336 8.39859 6.15305 9.00107 6.15305Z" stroke="#3F4B65" stroke-miterlimit="10" stroke-linecap="round" stroke-linejoin="round"/>
</svg>
