<svg width="20" height="20" viewBox="0 0 20 20" fill="none" xmlns="http://www.w3.org/2000/svg">
<g clip-path="url(#clip0_10585_32662)">
<path d="M18.5187 0.000793457H1.47625C0.6625 0.000793457 0 0.646418 0 1.44142V18.5564C0 19.3533 0.6625 20.0002 1.47625 20.0002H18.52C19.3356 20.0002 20 19.3533 20 18.5564V1.44142C20 0.646418 19.3356 0.000793457 18.5187 0.000793457Z" fill="#3D3D3D"/>
<path d="M2.96563 7.49811H5.93751V17.0419H2.96563V7.49811ZM4.44938 2.74811C5.39751 2.74811 6.16813 3.51873 6.16813 4.46686C6.16813 5.41498 5.39751 6.18748 4.45001 6.18748C3.99392 6.18649 3.55678 6.00492 3.23422 5.68247C2.91165 5.36002 2.72992 4.92295 2.72876 4.46686C2.72876 4.24099 2.77328 4.01734 2.85977 3.80869C2.94626 3.60004 3.07303 3.41048 3.23283 3.25086C3.39263 3.09123 3.58233 2.96467 3.79107 2.8784C3.99982 2.79214 4.22352 2.74786 4.44938 2.74811ZM7.79313 7.49811H10.6381V8.80248H10.6775C11.0738 8.05248 12.0413 7.26123 13.49 7.26123C16.4938 7.26123 17.0481 9.23811 17.0481 11.8075V17.0425H14.0838V12.4C14.0838 11.2937 14.0638 9.86873 12.5425 9.86873C10.9988 9.86873 10.7613 11.075 10.7613 12.3187V17.04H7.79751V7.49623L7.79313 7.49811Z" fill="white"/>
</g>
<defs>
<clipPath id="clip0_10585_32662">
<rect width="20" height="20" fill="white"/>
</clipPath>
</defs>
</svg>
