<svg width="20" height="21" viewBox="0 0 20 21" fill="none" xmlns="http://www.w3.org/2000/svg">
<g clip-path="url(#clip0_10578_29893)">
<path d="M18.5187 0.0507812H1.47625C0.6625 0.0507812 0 0.696406 0 1.49141V18.6064C0 19.4033 0.6625 20.0502 1.47625 20.0502H18.52C19.3356 20.0502 20 19.4033 20 18.6064V1.49141C20 0.696406 19.3356 0.0507812 18.5187 0.0507812Z" fill="#3D3D3D"/>
<path d="M2.96539 7.55078H5.93727V17.0945H2.96539V7.55078ZM4.44914 2.80078C5.39727 2.80078 6.16789 3.57141 6.16789 4.51953C6.16789 5.46766 5.39727 6.24016 4.44977 6.24016C3.99367 6.23917 3.55654 6.05759 3.23397 5.73514C2.91141 5.41269 2.72967 4.97562 2.72852 4.51953C2.72852 4.29366 2.77303 4.07001 2.85953 3.86136C2.94602 3.65271 3.07279 3.46315 3.23259 3.30353C3.39239 3.1439 3.58208 3.01734 3.79083 2.93108C3.99957 2.84481 4.22327 2.80054 4.44914 2.80078ZM7.79289 7.55078H10.6379V8.85516H10.6773C11.0735 8.10516 12.041 7.31391 13.4898 7.31391C16.4935 7.31391 17.0479 9.29078 17.0479 11.8602V17.0952H14.0835V12.4527C14.0835 11.3464 14.0635 9.92141 12.5423 9.92141C10.9985 9.92141 10.761 11.1277 10.761 12.3714V17.0927H7.79727V7.54891L7.79289 7.55078Z" fill="white"/>
</g>
<defs>
<clipPath id="clip0_10578_29893">
<rect width="20" height="20" fill="white" transform="translate(0 0.0507812)"/>
</clipPath>
</defs>
</svg>
