<svg width="21" height="20" viewBox="0 0 21 20" fill="none" xmlns="http://www.w3.org/2000/svg">
<g clip-path="url(#clip0_10579_32502)">
<path d="M19.0187 0.000793457H1.97625C1.1625 0.000793457 0.5 0.646418 0.5 1.44142V18.5564C0.5 19.3533 1.1625 20.0002 1.97625 20.0002H19.02C19.8356 20.0002 20.5 19.3533 20.5 18.5564V1.44142C20.5 0.646418 19.8356 0.000793457 19.0187 0.000793457Z" fill="#3D3D3D"/>
<path d="M3.46563 7.49811H6.43751V17.0419H3.46563V7.49811ZM4.94938 2.74811C5.89751 2.74811 6.66813 3.51873 6.66813 4.46686C6.66813 5.41498 5.89751 6.18748 4.95001 6.18748C4.49392 6.18649 4.05678 6.00492 3.73422 5.68247C3.41165 5.36002 3.22992 4.92295 3.22876 4.46686C3.22876 4.24099 3.27328 4.01734 3.35977 3.80869C3.44626 3.60004 3.57303 3.41048 3.73283 3.25086C3.89263 3.09123 4.08233 2.96467 4.29107 2.8784C4.49982 2.79214 4.72352 2.74786 4.94938 2.74811ZM8.29313 7.49811H11.1381V8.80248H11.1775C11.5738 8.05248 12.5413 7.26123 13.99 7.26123C16.9938 7.26123 17.5481 9.23811 17.5481 11.8075V17.0425H14.5838V12.4C14.5838 11.2937 14.5638 9.86873 13.0425 9.86873C11.4988 9.86873 11.2613 11.075 11.2613 12.3187V17.04H8.29751V7.49623L8.29313 7.49811Z" fill="white"/>
</g>
<defs>
<clipPath id="clip0_10579_32502">
<rect width="20" height="20" fill="white" transform="translate(0.5)"/>
</clipPath>
</defs>
</svg>
