<svg width="20" height="20" viewBox="0 0 20 20" fill="none" xmlns="http://www.w3.org/2000/svg">
<g clip-path="url(#clip0_10579_32051)">
<path d="M18.5187 0.000732422H1.47625C0.6625 0.000732422 0 0.646357 0 1.44136V18.5564C0 19.3532 0.6625 20.0001 1.47625 20.0001H18.52C19.3356 20.0001 20 19.3532 20 18.5564V1.44136C20 0.646357 19.3356 0.000732422 18.5187 0.000732422Z" fill="#3D3D3D"/>
<path d="M2.96563 7.49805H5.93751V17.0418H2.96563V7.49805ZM4.44938 2.74805C5.39751 2.74805 6.16813 3.51867 6.16813 4.4668C6.16813 5.41492 5.39751 6.18742 4.45001 6.18742C3.99392 6.18643 3.55678 6.00485 3.23422 5.68241C2.91165 5.35996 2.72992 4.92289 2.72876 4.4668C2.72876 4.24093 2.77328 4.01728 2.85977 3.80863C2.94626 3.59998 3.07303 3.41042 3.23283 3.25079C3.39263 3.09117 3.58233 2.96461 3.79107 2.87834C3.99982 2.79208 4.22352 2.7478 4.44938 2.74805ZM7.79313 7.49805H10.6381V8.80242H10.6775C11.0738 8.05242 12.0413 7.26117 13.49 7.26117C16.4938 7.26117 17.0481 9.23805 17.0481 11.8074V17.0424H14.0838V12.3999C14.0838 11.2937 14.0638 9.86867 12.5425 9.86867C10.9988 9.86867 10.7613 11.0749 10.7613 12.3187V17.0399H7.79751V7.49617L7.79313 7.49805Z" fill="white"/>
</g>
<defs>
<clipPath id="clip0_10579_32051">
<rect width="20" height="20" fill="white"/>
</clipPath>
</defs>
</svg>
