<svg width="20" height="20" viewBox="0 0 20 20" fill="none" xmlns="http://www.w3.org/2000/svg">
<g clip-path="url(#clip0_10578_27735)">
<path d="M18.5187 0H1.47625C0.6625 0 0 0.645625 0 1.44062V18.5556C0 19.3525 0.6625 19.9994 1.47625 19.9994H18.52C19.3356 19.9994 20 19.3525 20 18.5556V1.44062C20 0.645625 19.3356 0 18.5187 0Z" fill="#3D3D3D"/>
<path d="M2.96734 7.5H5.93922V17.0438H2.96734V7.5ZM4.45109 2.75C5.39922 2.75 6.16984 3.52063 6.16984 4.46875C6.16984 5.41688 5.39922 6.18938 4.45172 6.18938C3.99563 6.18839 3.55849 6.00681 3.23593 5.68436C2.91336 5.36191 2.73162 4.92484 2.73047 4.46875C2.73047 4.24288 2.77499 4.01923 2.86148 3.81058C2.94797 3.60193 3.07474 3.41237 3.23454 3.25275C3.39434 3.09312 3.58404 2.96656 3.79278 2.88029C4.00153 2.79403 4.22523 2.74975 4.45109 2.75ZM7.79484 7.5H10.6398V8.80438H10.6792C11.0755 8.05438 12.043 7.26313 13.4917 7.26313C16.4955 7.26313 17.0498 9.24 17.0498 11.8094V17.0444H14.0855V12.4019C14.0855 11.2956 14.0655 9.87063 12.5442 9.87063C11.0005 9.87063 10.763 11.0769 10.763 12.3206V17.0419H7.79922V7.49813L7.79484 7.5Z" fill="white"/>
</g>
<defs>
<clipPath id="clip0_10578_27735">
<rect width="20" height="20" fill="white"/>
</clipPath>
</defs>
</svg>
