<svg width="48" height="36" viewBox="0 0 48 36" fill="none" xmlns="http://www.w3.org/2000/svg">
<g clip-path="url(#clip0_8251_34640)">
<path d="M9.14236 6.80469C5.36174 6.80469 2.28559 9.84482 2.28559 13.5812V17.1448H0V21.665H2.28559V29.0835H6.85677V21.665H9.14236V17.1448H6.85677V13.5812C6.85677 12.3357 7.88216 11.3223 9.14236 11.3223C10.4026 11.3223 11.428 12.3357 11.428 13.5812H16.0017C16.0017 9.84482 12.9256 6.80469 9.14497 6.80469H9.14236Z" fill="#FF637D"/>
<path d="M15.9996 17.1445H11.4258V29.0807H15.9996V17.1445Z" fill="#FF637D"/>
<path d="M22.8589 6.82031H18.2852V29.0863H22.8589V6.82031Z" fill="#FF637D"/>
<path d="M29.7183 6.82031H25.1445V29.0863H29.7183V6.82031Z" fill="#FF637D"/>
<path d="M36.5712 6.91797H32V18.8542H36.5712V6.91797Z" fill="#FF637D"/>
<path d="M48.0017 14.3365H45.7162V6.91797H41.145V14.3365H38.8594V18.8567H41.145V22.4203C41.145 23.6658 40.1196 24.6792 38.8594 24.6792C37.5992 24.6792 36.5738 23.6658 36.5738 22.4203H32C32 26.1567 35.0762 29.1968 38.8568 29.1968C42.6374 29.1968 45.7135 26.1567 45.7135 22.4203V18.8567H47.9991V14.3365H48.0017Z" fill="#FF637D"/>
<path d="M34.2895 4.65828C35.5523 4.65828 36.5751 3.64748 36.5751 2.39945C36.5751 1.15142 35.5523 0.140625 34.2895 0.140625C33.0267 0.140625 32.0039 1.15142 32.0039 2.39945C32.0039 3.64748 33.0267 4.65828 34.2895 4.65828Z" fill="#FF637D"/>
<path d="M13.5122 31.3438C12.2493 31.3438 11.2266 32.3546 11.2266 33.6026C11.2266 34.8506 12.2493 35.8614 13.5122 35.8614C14.775 35.8614 15.7977 34.8506 15.7977 33.6026C15.7977 32.3546 14.775 31.3438 13.5122 31.3438Z" fill="#FF637D"/>
</g>
<defs>
<clipPath id="clip0_8251_34640">
<rect width="48" height="35.7209" fill="white" transform="translate(0 0.140625)"/>
</clipPath>
</defs>
</svg>
