<svg width="62" height="47" viewBox="0 0 62 47" fill="none" xmlns="http://www.w3.org/2000/svg">
<g clip-path="url(#clip0_10578_15138)">
<path d="M11.8089 8.60938C6.92559 8.60938 2.95222 12.5362 2.95222 17.3623V21.9653H0V27.8039H2.95222V37.3862H8.85666V27.8039H11.8089V21.9653H8.85666V17.3623C8.85666 15.7536 10.1811 14.4447 11.8089 14.4447C13.4366 14.4447 14.7611 15.7536 14.7611 17.3623H20.6689C20.6689 12.5362 16.6955 8.60938 11.8123 8.60938H11.8089Z" fill="#FF637D"/>
<path d="M20.6656 21.9648H14.7578V37.3824H20.6656V21.9648Z" fill="#FF637D"/>
<path d="M29.525 8.625H23.6172V37.3852H29.525V8.625Z" fill="#FF637D"/>
<path d="M38.3863 8.625H32.4785V37.3852H38.3863V8.625Z" fill="#FF637D"/>
<path d="M47.2384 8.75781H41.334V24.1754H47.2384V8.75781Z" fill="#FF637D"/>
<path d="M62.0009 18.3401H59.0487V8.75781H53.1443V18.3401H50.1921V24.1787H53.1443V28.7817C53.1443 30.3904 51.8198 31.6994 50.1921 31.6994C48.5643 31.6994 47.2398 30.3904 47.2398 28.7817H41.332C41.332 33.6078 45.3054 37.5347 50.1887 37.5347C55.072 37.5347 59.0454 33.6078 59.0454 28.7817V24.1787H61.9976V18.3401H62.0009Z" fill="#FF637D"/>
<path d="M44.2901 5.8353C45.9212 5.8353 47.2423 4.52969 47.2423 2.91765C47.2423 1.30562 45.9212 0 44.2901 0C42.659 0 41.3379 1.30562 41.3379 2.91765C41.3379 4.52969 42.659 5.8353 44.2901 5.8353Z" fill="#FF637D"/>
<path d="M17.4542 40.3047C15.823 40.3047 14.502 41.6103 14.502 43.2223C14.502 44.8344 15.823 46.14 17.4542 46.14C19.0853 46.14 20.4064 44.8344 20.4064 43.2223C20.4064 41.6103 19.0853 40.3047 17.4542 40.3047Z" fill="#FF637D"/>
</g>
<defs>
<clipPath id="clip0_10578_15138">
<rect width="62" height="46.1395" fill="white"/>
</clipPath>
</defs>
</svg>
