<svg width="62" height="47" viewBox="0 0 62 47" fill="none" xmlns="http://www.w3.org/2000/svg">
<g clip-path="url(#clip0_10579_32021)">
<path d="M11.8089 8.60962C6.92559 8.60962 2.95222 12.5365 2.95222 17.3626V21.9655H0V27.8042H2.95222V37.3865H8.85666V27.8042H11.8089V21.9655H8.85666V17.3626C8.85666 15.7539 10.1811 14.4449 11.8089 14.4449C13.4366 14.4449 14.7611 15.7539 14.7611 17.3626H20.6689C20.6689 12.5365 16.6955 8.60962 11.8123 8.60962H11.8089Z" fill="#FF637D"/>
<path d="M20.6655 21.9656H14.7577V37.3832H20.6655V21.9656Z" fill="#FF637D"/>
<path d="M29.5256 8.62646H23.6178V37.3866H29.5256V8.62646Z" fill="#FF637D"/>
<path d="M38.3856 8.62646H32.4778V37.3866H38.3856V8.62646Z" fill="#FF637D"/>
<path d="M47.2389 8.75635H41.3345V24.1739H47.2389V8.75635Z" fill="#FF637D"/>
<path d="M62 18.3386H59.0478V8.75635H53.1433V18.3386H50.1911V24.1773H53.1433V28.7802C53.1433 30.3889 51.8188 31.6979 50.1911 31.6979C48.5633 31.6979 47.2389 30.3889 47.2389 28.7802H41.3311C41.3311 33.6064 45.3044 37.5332 50.1877 37.5332C55.071 37.5332 59.0444 33.6064 59.0444 28.7802V24.1773H61.9966V18.3386H62Z" fill="#FF637D"/>
<path d="M44.2901 5.8353C45.9212 5.8353 47.2423 4.52969 47.2423 2.91765C47.2423 1.30562 45.9212 0 44.2901 0C42.659 0 41.3379 1.30562 41.3379 2.91765C41.3379 4.52969 42.659 5.8353 44.2901 5.8353Z" fill="#FF637D"/>
<path d="M17.4538 40.3042C15.8227 40.3042 14.5016 41.6098 14.5016 43.2219C14.5016 44.8339 15.8227 46.1395 17.4538 46.1395C19.0849 46.1395 20.406 44.8339 20.406 43.2219C20.406 41.6098 19.0849 40.3042 17.4538 40.3042Z" fill="#FF637D"/>
</g>
<defs>
<clipPath id="clip0_10579_32021">
<rect width="62" height="46.1395" fill="white"/>
</clipPath>
</defs>
</svg>
