<svg width="1512" height="280" viewBox="0 0 1512 280" fill="none" xmlns="http://www.w3.org/2000/svg">
<g clip-path="url(#clip0_8251_34180)">
<path d="M227.18 40C235.013 40 241.362 33.7322 241.362 26V16.2C241.362 15.0861 240.914 14.0178 240.116 13.2302C239.318 12.4425 238.236 12 237.108 12H227.89V18.1418C227.89 19.5432 227.976 20.995 228.721 22.1878C229.254 23.0426 229.967 23.7743 230.811 24.3332C231.656 24.892 232.613 25.265 233.616 25.4267L233.888 25.4701C234 25.5079 234.097 25.5793 234.166 25.6743C234.235 25.7693 234.272 25.8832 234.272 26C234.272 26.1168 234.235 26.2307 234.166 26.3257C234.097 26.4207 234 26.4921 233.888 26.5299L233.616 26.5733C232.15 26.8098 230.796 27.4949 229.745 28.532C228.695 29.5691 228.001 30.9057 227.761 32.3532L227.717 32.6213C227.679 32.7318 227.607 32.8278 227.51 32.8957C227.414 32.9636 227.299 33.0002 227.18 33.0002C227.062 33.0002 226.947 32.9636 226.85 32.8957C226.754 32.8278 226.682 32.7318 226.644 32.6213L226.6 32.3532C226.436 31.3625 226.058 30.4182 225.492 29.5844C224.926 28.7505 224.185 28.0466 223.319 27.5204C222.11 26.7854 220.64 26.7 219.22 26.7H213.016C213.386 34.1067 219.586 40 227.18 40Z" fill="#3D3D3D"/>
<path d="M213 25.3H219.222C220.641 25.3 222.112 25.2146 223.32 24.4796C224.265 23.9051 225.06 23.1202 225.642 22.1878C226.386 20.995 226.473 19.5432 226.473 18.1418V12H217.255C216.126 12 215.044 12.4425 214.246 13.2302C213.448 14.0178 213 15.0861 213 16.2V25.3ZM245.941 13.4C245.941 13.7713 245.791 14.1274 245.525 14.3899C245.259 14.6525 244.899 14.8 244.523 14.8C244.147 14.8 243.786 14.6525 243.52 14.3899C243.254 14.1274 243.104 13.7713 243.104 13.4C243.104 13.0287 243.254 12.6726 243.52 12.4101C243.786 12.1475 244.147 12 244.523 12C244.899 12 245.259 12.1475 245.525 12.4101C245.791 12.6726 245.941 13.0287 245.941 13.4ZM363.122 20.4728C367.087 20.4728 369 23.2063 369 26.3724V32.3189H364.851V27.078C364.851 25.643 364.321 24.4586 362.8 24.4586C361.279 24.4586 360.772 25.643 360.772 27.078V32.3182H356.623V27.078C356.623 25.643 356.116 24.4586 354.594 24.4586C353.073 24.4586 352.543 25.643 352.543 27.078V32.3182H348.395V26.3717C348.395 23.2056 350.307 20.4721 354.271 20.4721C356.438 20.4721 358.006 21.3149 358.72 22.7044C359.48 21.3149 361.14 20.4714 363.122 20.4714V20.4728ZM340.939 28.674C342.276 28.674 342.852 27.4665 342.852 26.0308V20.9278H347V26.532C347 29.8808 345.019 32.6605 340.939 32.6605C336.859 32.6605 334.877 29.8815 334.877 26.532V20.9278H339.026V26.0308C339.026 27.4658 339.602 28.674 340.939 28.674ZM328.777 32.6829C326.172 32.6829 324.49 31.7946 323.498 30.0635L326.495 28.4003C326.91 29.129 327.532 29.4937 328.569 29.4937C329.422 29.4937 329.814 29.1976 329.814 28.8329C329.814 27.4434 323.729 28.856 323.729 24.4369C323.729 22.2949 325.572 20.5638 328.707 20.5638C331.45 20.5638 332.948 21.8847 333.617 23.1608L330.62 24.8464C330.367 24.1632 329.583 23.753 328.8 23.753C328.2 23.753 327.878 24.0036 327.878 24.3452C327.878 25.7578 333.962 24.4593 333.962 28.7419C333.962 31.1338 331.588 32.6829 328.777 32.6829ZM314.282 37.5584H310.133V26.6006C310.133 23.1146 312.783 20.5862 316.471 20.5862C320.067 20.5862 322.81 23.2973 322.81 26.6006C322.81 30.2455 320.366 32.6605 316.702 32.6605C315.849 32.6605 314.996 32.4099 314.282 32.0221V37.5584ZM316.471 28.8105C317.785 28.8105 318.661 27.8081 318.661 26.623C318.661 25.4162 317.785 24.4362 316.471 24.4362C315.157 24.4362 314.282 25.4162 314.282 26.6237C314.282 27.8081 315.157 28.8105 316.471 28.8105ZM305.977 19.721C304.617 19.721 303.488 18.6045 303.488 17.2605C303.488 15.9165 304.617 14.8 305.977 14.8C307.337 14.8 308.466 15.9165 308.466 17.2605C308.466 18.6045 307.337 19.721 305.977 19.721ZM303.903 20.9278H308.052V32.3189H303.903V20.9278ZM295.942 32.6605C292.347 32.6605 289.604 29.927 289.604 26.6006C289.604 23.2973 292.347 20.5638 295.942 20.5638C299.538 20.5638 302.281 23.2973 302.281 26.6006C302.281 29.927 299.538 32.6605 295.942 32.6605ZM295.942 28.8105C297.256 28.8105 298.132 27.8081 298.132 26.623C298.132 25.4162 297.256 24.4138 295.942 24.4138C294.628 24.4138 293.753 25.4162 293.753 26.623C293.753 27.8081 294.628 28.8105 295.942 28.8105ZM281.77 37.9C278.912 37.9 276.837 36.647 275.777 34.414L279.211 32.5919C279.58 33.3668 280.271 34.1641 281.7 34.1641C283.199 34.1641 284.19 33.2296 284.305 31.5895C283.752 32.0683 282.876 32.4323 281.563 32.4323C278.358 32.4323 275.777 29.9949 275.777 26.5775C275.777 23.2749 278.52 20.5862 282.116 20.5862C285.804 20.5862 288.454 23.1153 288.454 26.6006V31.1114C288.454 35.212 285.573 37.9 281.77 37.9ZM282.046 28.583C283.291 28.583 284.236 27.7395 284.236 26.4865C284.236 25.2566 283.291 24.4362 282.046 24.4362C280.825 24.4362 279.857 25.2566 279.857 26.4872C279.857 27.7402 280.825 28.5823 282.046 28.5823V28.583ZM268.74 32.6605C265.144 32.6605 262.4 29.927 262.4 26.6006C262.4 23.2973 265.144 20.5638 268.74 20.5638C272.335 20.5638 275.078 23.2973 275.078 26.6006C275.078 29.927 272.335 32.6605 268.74 32.6605ZM268.74 28.8105C270.053 28.8105 270.929 27.8081 270.929 26.623C270.929 25.4162 270.053 24.4138 268.74 24.4138C267.426 24.4138 266.55 25.4162 266.55 26.623C266.55 27.8081 267.426 28.8105 268.74 28.8105ZM254.846 16.942V28.4458H261.715V32.3189H254.269C251.642 32.3189 250.582 30.9518 250.582 28.7874V16.942H254.846Z" fill="#3D3D3D"/>
</g>
<path d="M442.809 28.8359H444.792V38.6411H442.809V28.8359Z" fill="#3D3D3D"/>
<path d="M445.942 35.281C445.94 34.5767 446.146 33.8879 446.533 33.3016C446.92 32.7154 447.471 32.2581 448.116 31.9877C448.761 31.7173 449.471 31.6458 450.156 31.7824C450.841 31.919 451.471 32.2575 451.965 32.7551C452.459 33.2526 452.796 33.8868 452.933 34.5774C453.07 35.2681 453 35.9841 452.733 36.6349C452.466 37.2857 452.014 37.842 451.433 38.2334C450.853 38.6249 450.17 38.8338 449.471 38.8338C449.007 38.8391 448.546 38.751 448.116 38.5744C447.686 38.3978 447.295 38.1364 446.966 37.8055C446.637 37.4747 446.377 37.0809 446.201 36.6474C446.025 36.2139 445.937 35.7493 445.942 35.281ZM451.005 35.281C450.997 34.977 450.901 34.682 450.727 34.433C450.554 34.184 450.312 33.9921 450.031 33.8811C449.75 33.7701 449.443 33.7452 449.149 33.8093C448.854 33.8734 448.584 34.0237 448.374 34.2415C448.163 34.4593 448.021 34.7349 447.965 35.0337C447.909 35.3325 447.942 35.6414 448.059 35.9217C448.176 36.2019 448.372 36.4411 448.624 36.6093C448.875 36.7775 449.17 36.8673 449.471 36.8674C449.678 36.8733 449.883 36.8359 450.074 36.7577C450.266 36.6795 450.439 36.5622 450.583 36.4131C450.727 36.264 450.839 36.0865 450.912 35.8917C450.984 35.6968 451.016 35.4889 451.005 35.281Z" fill="#3D3D3D"/>
<path d="M460.973 31.9196V38.3053C460.973 40.565 459.221 41.5182 457.45 41.5182C456.827 41.5649 456.203 41.4379 455.647 41.151C455.091 40.8641 454.624 40.4284 454.297 39.8918L456.002 38.8986C456.138 39.1736 456.352 39.4014 456.617 39.5523C456.882 39.7032 457.186 39.7704 457.49 39.7451C457.689 39.7787 457.894 39.7656 458.088 39.7067C458.282 39.6479 458.46 39.545 458.608 39.4058C458.756 39.2667 458.87 39.0951 458.942 38.9043C459.014 38.7135 459.042 38.5086 459.023 38.3053V37.6854C458.79 37.9747 458.492 38.2044 458.155 38.3561C457.817 38.5078 457.449 38.5772 457.08 38.5586C456.182 38.5586 455.321 38.1991 454.687 37.559C454.052 36.919 453.695 36.0509 453.695 35.1458C453.695 34.2406 454.052 33.3726 454.687 32.7326C455.321 32.0925 456.182 31.733 457.08 31.733C457.449 31.716 457.816 31.786 458.154 31.9376C458.491 32.0892 458.789 32.3181 459.023 32.6061V31.9396L460.973 31.9196ZM459.023 35.1458C459.036 34.8216 458.953 34.5009 458.784 34.2247C458.615 33.9487 458.368 33.7298 458.075 33.5965C457.781 33.4631 457.455 33.4212 457.138 33.4763C456.821 33.5313 456.527 33.6807 456.295 33.9052C456.063 34.1299 455.903 34.4193 455.835 34.7365C455.767 35.0536 455.795 35.3841 455.915 35.6851C456.035 35.9863 456.241 36.2443 456.508 36.4261C456.774 36.608 457.088 36.7053 457.41 36.7056C457.62 36.7205 457.831 36.691 458.029 36.6188C458.227 36.5466 458.408 36.4334 458.56 36.2865C458.712 36.1395 458.831 35.962 458.911 35.7656C458.991 35.5692 459.029 35.358 459.023 35.1458Z" fill="#3D3D3D"/>
<path d="M462.117 35.281C462.116 34.5767 462.322 33.8879 462.709 33.3016C463.096 32.7154 463.647 32.2581 464.292 31.9877C464.937 31.7173 465.647 31.6458 466.332 31.7824C467.017 31.919 467.646 32.2575 468.141 32.7551C468.635 33.2526 468.972 33.8868 469.109 34.5774C469.245 35.2681 469.176 35.9841 468.909 36.6349C468.642 37.2857 468.19 37.842 467.609 38.2334C467.028 38.6249 466.346 38.8338 465.647 38.8338C465.183 38.8391 464.722 38.751 464.292 38.5744C463.861 38.3978 463.47 38.1364 463.142 37.8055C462.813 37.4747 462.553 37.0809 462.377 36.6474C462.201 36.2139 462.113 35.7493 462.117 35.281ZM467.181 35.281C467.173 34.977 467.076 34.682 466.903 34.433C466.73 34.184 466.488 33.9921 466.207 33.8811C465.926 33.7701 465.619 33.7452 465.324 33.8093C465.03 33.8734 464.76 34.0237 464.549 34.2415C464.339 34.4593 464.197 34.7349 464.141 35.0337C464.085 35.3325 464.117 35.6414 464.234 35.9217C464.352 36.2019 464.548 36.4411 464.799 36.6093C465.051 36.7775 465.346 36.8673 465.647 36.8674C465.852 36.8713 466.056 36.8327 466.246 36.7536C466.436 36.6745 466.607 36.5569 466.75 36.4081C466.893 36.2593 467.003 36.0823 467.075 35.8884C467.147 35.6945 467.178 35.4877 467.168 35.281H467.181Z" fill="#3D3D3D"/>
<path d="M470.098 30.1233C470.098 29.8834 470.168 29.6488 470.3 29.4493C470.433 29.2498 470.62 29.0943 470.84 29.0025C471.06 28.9107 471.302 28.8867 471.535 28.9335C471.769 28.9803 471.983 29.0958 472.151 29.2654C472.32 29.4351 472.434 29.6513 472.481 29.8866C472.527 30.122 472.503 30.3659 472.412 30.5876C472.321 30.8092 472.167 30.9987 471.969 31.132C471.771 31.2653 471.539 31.3364 471.301 31.3364C470.982 31.3347 470.677 31.2063 470.452 30.9792C470.227 30.7521 470.099 30.4445 470.098 30.1233ZM470.303 31.923H472.286V38.642H470.303V31.923Z" fill="#3D3D3D"/>
<path d="M480.931 35.2795C480.955 35.7237 480.891 36.1682 480.744 36.5876C480.597 37.007 480.37 37.3929 480.074 37.7231C479.778 38.0533 479.421 38.3213 479.022 38.5117C478.624 38.7021 478.192 38.8111 477.751 38.8324C477.381 38.8502 477.012 38.7861 476.669 38.6445C476.327 38.5028 476.019 38.2871 475.768 38.0125V41.3453H473.785V31.92H475.768V32.5533C476.019 32.2787 476.327 32.063 476.669 31.9213C477.012 31.7796 477.381 31.7155 477.751 31.7334C478.191 31.7547 478.623 31.8635 479.021 32.0534C479.419 32.2435 479.776 32.5109 480.072 32.8404C480.367 33.1699 480.595 33.5549 480.742 33.9735C480.89 34.3921 480.954 34.836 480.931 35.2795ZM478.948 35.2795C478.94 34.9667 478.841 34.663 478.664 34.4061C478.486 34.1493 478.238 33.9505 477.95 33.8345C477.662 33.7183 477.346 33.69 477.042 33.7531C476.738 33.816 476.459 33.9676 476.24 34.1889C476.02 34.4102 475.87 34.6915 475.808 34.998C475.745 35.3046 475.773 35.6229 475.888 35.9135C476.004 36.2041 476.201 36.4543 476.455 36.6331C476.71 36.8119 477.011 36.9114 477.322 36.9193C477.538 36.9332 477.755 36.9002 477.958 36.8225C478.161 36.7448 478.345 36.6242 478.497 36.4689C478.65 36.3136 478.768 36.1271 478.844 35.922C478.919 35.7168 478.95 35.4978 478.934 35.2795H478.948Z" fill="#3D3D3D"/>
<path d="M487.103 36.6256C487.103 38.1721 485.781 38.8319 484.327 38.8319C483.746 38.8838 483.163 38.7591 482.653 38.474C482.143 38.1889 481.729 37.7564 481.465 37.2322L483.197 36.239C483.267 36.4815 483.417 36.6924 483.623 36.8367C483.829 36.981 484.077 37.05 484.327 37.0322C484.81 37.0322 485.048 36.8789 485.048 36.6123C485.048 35.8724 481.742 36.2657 481.742 33.946C481.742 32.4795 482.972 31.7396 484.387 31.7396C484.908 31.7237 485.425 31.8487 485.883 32.1019C486.341 32.355 486.724 32.7271 486.991 33.1794L485.252 34.0993C485.176 33.9233 485.05 33.7735 484.89 33.6682C484.731 33.5629 484.544 33.5065 484.353 33.506C484.01 33.506 483.798 33.6394 483.798 33.886C483.825 34.6525 487.103 34.1393 487.103 36.6256Z" fill="#3D3D3D"/>
<path d="M494.402 31.9219V38.6409H492.419V38.0143C492.189 38.2927 491.896 38.5121 491.565 38.6547C491.234 38.7972 490.874 38.8587 490.515 38.8342C489.193 38.8342 488.023 37.8677 488.023 36.048V31.9219H490.006V35.7547C489.989 35.918 490.008 36.0832 490.062 36.2383C490.115 36.3934 490.203 36.5344 490.317 36.6512C490.432 36.768 490.571 36.8576 490.724 36.9135C490.877 36.9695 491.041 36.9903 491.203 36.9745C491.93 36.9745 492.439 36.5479 492.439 35.5947V31.9219H494.402Z" fill="#3D3D3D"/>
<path d="M505.862 34.5193V38.6387H503.879V34.6927C503.879 34.0261 503.555 33.5861 502.921 33.5861C502.286 33.5861 501.876 34.0594 501.876 34.8526V38.6387H499.893V34.6927C499.893 34.0261 499.576 33.5861 498.935 33.5861C498.294 33.5861 497.897 34.0594 497.897 34.8526V38.6387H495.914V31.9198H497.897V32.5397C498.104 32.2659 498.376 32.0487 498.688 31.9078C499 31.7669 499.341 31.7069 499.682 31.7331C500.024 31.7163 500.364 31.7892 500.67 31.9445C500.976 32.0999 501.237 32.3325 501.427 32.6196C501.648 32.3194 501.941 32.0806 502.279 31.9256C502.616 31.7706 502.987 31.7043 503.357 31.7331C504.864 31.7331 505.862 32.8396 505.862 34.5193Z" fill="#3D3D3D"/>
<path d="M507.555 31.8808C508.373 31.8808 509.036 31.2122 509.036 30.3876C509.036 29.563 508.373 28.8945 507.555 28.8945C506.737 28.8945 506.074 29.563 506.074 30.3876C506.074 31.2122 506.737 31.8808 507.555 31.8808Z" fill="#3D3D3D"/>
<path d="M465.25 23.7502C469.08 23.7502 472.184 20.6196 472.184 16.7579C472.184 12.8962 469.08 9.76562 465.25 9.76562C461.421 9.76562 458.316 12.8962 458.316 16.7579C458.316 20.6196 461.421 23.7502 465.25 23.7502Z" fill="#3D3D3D"/>
<path d="M480.75 23.7502C484.58 23.7502 487.684 20.6196 487.684 16.7579C487.684 12.8962 484.58 9.76562 480.75 9.76562C476.921 9.76562 473.816 12.8962 473.816 16.7579C473.816 20.6196 476.921 23.7502 480.75 23.7502Z" fill="#3D3D3D"/>
<path d="M456.686 9.76562H442.824V23.7435H456.686V9.76562Z" fill="#3D3D3D"/>
<g clip-path="url(#clip1_8251_34180)">
<path d="M669.434 32.6678H672.728V20.3558H669.434V32.6678ZM669.434 18.4358H672.728V15.5078H669.434V18.4358Z" fill="#3D3D3D"/>
<path d="M674.852 36.6996H678.146V31.2755H678.194C678.896 32.3316 680.035 33.0276 681.778 33.0276C684.975 33.0276 687.155 30.5076 687.155 26.5236C687.155 22.6835 685.048 20.0195 681.754 20.0195C680.059 20.0195 678.896 20.8116 678.097 21.8915H678.024V20.3555H674.852V36.6996ZM681.076 30.3156C679.114 30.3156 678.073 28.8516 678.073 26.6196C678.073 24.4115 678.896 22.6596 680.955 22.6596C682.99 22.6596 683.813 24.2916 683.813 26.6196C683.813 28.9475 682.747 30.3156 681.076 30.3156Z" fill="#3D3D3D"/>
<path d="M693.727 33.0276C696.827 33.0276 698.958 31.5396 698.958 29.0675C698.958 26.1876 696.657 25.6116 694.574 25.1796C692.806 24.8196 691.159 24.7235 691.159 23.6676C691.159 22.7796 692.007 22.2996 693.291 22.2996C694.696 22.2996 695.543 22.7796 695.688 24.0996H698.667C698.426 21.6276 696.609 20.0195 693.339 20.0195C690.505 20.0195 688.277 21.2916 688.277 23.9556C688.277 26.6436 690.457 27.2435 692.685 27.6756C694.381 28.0116 695.955 28.1316 695.955 29.3076C695.955 30.1716 695.132 30.7236 693.678 30.7236C692.201 30.7236 691.183 30.0995 690.966 28.6836H687.914C688.108 31.2995 690.118 33.0276 693.727 33.0276Z" fill="#3D3D3D"/>
<path d="M711.465 32.6675V20.3555H708.171V27.4595C708.171 29.0915 707.226 30.2435 705.676 30.2435C704.271 30.2435 703.618 29.4515 703.618 28.0115V20.3555H700.348V28.5635C700.348 31.2515 701.898 33.0035 704.659 33.0035C706.403 33.0035 707.372 32.3555 708.219 31.2275H708.292V32.6675H711.465Z" fill="#3D3D3D"/>
<path d="M713.594 32.6676H716.888V25.5156C716.888 23.8835 717.784 22.8276 719.117 22.8276C720.327 22.8276 721.03 23.5475 721.03 24.9396V32.6676H724.324V25.5156C724.324 23.8835 725.171 22.8276 726.552 22.8276C727.763 22.8276 728.465 23.5475 728.465 24.9396V32.6676H731.759V24.3875C731.759 21.6995 730.282 20.0195 727.666 20.0195C726.092 20.0195 724.783 20.8355 723.936 22.1795H723.888C723.282 20.8835 722.023 20.0195 720.448 20.0195C718.729 20.0195 717.518 20.8835 716.84 22.0115H716.767V20.3555H713.594V32.6676Z" fill="#3D3D3D"/>
<path d="M583.582 32.6678H586.876V15.5078H583.582V32.6678Z" fill="#3D3D3D"/>
<path d="M594.929 33.0276C598.78 33.0276 601.42 30.1956 601.42 26.5236C601.42 22.8515 598.78 20.0195 594.929 20.0195C591.077 20.0195 588.438 22.8515 588.438 26.5236C588.438 30.1956 591.077 33.0276 594.929 33.0276ZM594.929 30.5316C592.894 30.5316 591.78 28.9235 591.78 26.5236C591.78 24.1236 592.894 22.4916 594.929 22.4916C596.939 22.4916 598.077 24.1236 598.077 26.5236C598.077 28.9235 596.939 30.5316 594.929 30.5316Z" fill="#3D3D3D"/>
<path d="M608.427 36.8675C610.268 36.8675 611.866 36.4356 612.908 35.4755C613.828 34.6355 614.385 33.4595 614.385 31.7316V20.3555H611.212V21.6516H611.164C610.413 20.6196 609.275 20.0195 607.725 20.0195C604.576 20.0195 602.348 22.3715 602.348 26.0435C602.348 29.7635 605.06 31.9235 607.821 31.9235C609.396 31.9235 610.34 31.2995 611.067 30.4835H611.14V31.8275C611.14 33.5075 610.243 34.3956 608.378 34.3956C606.853 34.3956 606.15 33.7955 605.884 33.0276H602.614C602.953 35.4276 605.036 36.8675 608.427 36.8675ZM608.378 29.3076C606.683 29.3076 605.569 28.0835 605.569 25.9956C605.569 23.9316 606.683 22.6356 608.354 22.6356C610.34 22.6356 611.309 24.1716 611.309 25.9716C611.309 27.7955 610.461 29.3076 608.378 29.3076Z" fill="#3D3D3D"/>
<path d="M622.389 33.0276C626.24 33.0276 628.88 30.1956 628.88 26.5236C628.88 22.8515 626.24 20.0195 622.389 20.0195C618.538 20.0195 615.898 22.8515 615.898 26.5236C615.898 30.1956 618.538 33.0276 622.389 33.0276ZM622.389 30.5316C620.355 30.5316 619.241 28.9235 619.241 26.5236C619.241 24.1236 620.355 22.4916 622.389 22.4916C624.4 22.4916 625.538 24.1236 625.538 26.5236C625.538 28.9235 624.4 30.5316 622.389 30.5316Z" fill="#3D3D3D"/>
<path d="M732.957 18.332C732.957 17.7797 733.409 17.332 733.967 17.332H735.985C736.542 17.332 736.994 17.7797 736.994 18.332C736.994 18.8843 736.542 19.332 735.985 19.332H733.967C733.409 19.332 732.957 18.8843 732.957 18.332Z" fill="#3D3D3D"/>
<path fill-rule="evenodd" clip-rule="evenodd" d="M648.859 12C656.662 12 662.988 18.268 662.988 26C662.988 33.732 656.662 40 648.859 40C641.056 40 634.73 33.732 634.73 26C634.73 18.268 641.056 12 648.859 12ZM648.348 13.0476C646.736 13.2724 645.202 14.5558 644.01 16.7022C643.665 17.3248 643.353 18.0126 643.081 18.7553C644.701 18.3519 646.481 18.1141 648.348 18.0773V13.0476ZM641.887 19.0916C642.225 18.0407 642.638 17.0739 643.115 16.2145C643.706 15.1504 644.407 14.2316 645.197 13.5258C640.902 14.7617 637.517 18.1158 636.27 22.371C636.982 21.5885 637.91 20.8939 638.984 20.3087C639.851 19.836 640.827 19.4264 641.887 19.0916ZM641.548 20.2748C641.141 21.88 640.901 23.6434 640.863 25.494H635.788C636.014 23.8968 637.31 22.376 639.476 21.1955C640.104 20.853 640.798 20.5441 641.548 20.2748ZM641.885 25.494C641.927 23.4744 642.221 21.5784 642.706 19.9031C644.397 19.4221 646.31 19.1313 648.348 19.0895V21.2756C647.588 23.2043 646.037 24.7408 644.091 25.494H641.885ZM640.863 26.506H635.788C636.014 28.1032 637.31 29.624 639.476 30.8045C640.104 31.147 640.798 31.4559 641.548 31.7252C641.141 30.12 640.901 28.3566 640.863 26.506ZM642.706 32.0969C642.221 30.4216 641.927 28.5256 641.885 26.506H644.091C646.037 27.2592 647.588 28.7957 648.348 30.7244V32.9105C646.31 32.8687 644.397 32.5779 642.706 32.0969ZM641.887 32.9084C640.827 32.5736 639.851 32.164 638.984 31.6913C637.91 31.1061 636.982 30.4115 636.27 29.629C637.517 33.8842 640.902 37.2384 645.197 38.4741C644.407 37.7684 643.706 36.8496 643.115 35.7855C642.638 34.9261 642.225 33.9593 641.887 32.9084ZM648.348 38.9524C646.736 38.7276 645.202 37.4442 644.01 35.2978C643.665 34.6752 643.353 33.9873 643.081 33.2447C644.701 33.6481 646.481 33.8859 648.348 33.9227V38.9524ZM652.521 38.4741C653.311 37.7684 654.012 36.8496 654.602 35.7855C655.079 34.9261 655.493 33.9593 655.831 32.9084C656.891 32.5736 657.867 32.164 658.734 31.6913C659.808 31.1061 660.735 30.4115 661.448 29.629C660.2 33.8842 656.816 37.2384 652.521 38.4741ZM654.637 33.2447C654.365 33.9873 654.053 34.6752 653.707 35.2978C652.516 37.4442 650.981 38.7276 649.37 38.9524V33.9227C651.237 33.8859 653.017 33.6481 654.637 33.2447ZM656.17 31.7252C656.919 31.4559 657.614 31.147 658.242 30.8045C660.408 29.624 661.703 28.1032 661.93 26.506H656.854C656.817 28.3566 656.577 30.12 656.17 31.7252ZM655.833 26.506C655.791 28.5256 655.497 30.4216 655.011 32.0969C653.321 32.5779 651.408 32.8687 649.37 32.9105V30.726C650.13 28.7966 651.681 27.2594 653.628 26.506H655.833ZM656.854 25.494H661.93C661.703 23.8968 660.408 22.376 658.242 21.1955C657.614 20.853 656.919 20.5441 656.17 20.2748C656.577 21.88 656.817 23.6434 656.854 25.494ZM655.011 19.9031C655.497 21.5784 655.791 23.4744 655.833 25.494H653.628C651.681 24.7406 650.13 23.2034 649.37 21.2739V19.0895C651.408 19.1313 653.321 19.4221 655.011 19.9031ZM655.831 19.0916C656.891 19.4264 657.867 19.836 658.734 20.3087C659.808 20.8939 660.735 21.5885 661.448 22.371C660.2 18.1158 656.816 14.7617 652.521 13.5258C653.311 14.2316 654.012 15.1504 654.602 16.2145C655.079 17.0739 655.493 18.0407 655.831 19.0916ZM649.37 13.0476C650.981 13.2724 652.516 14.5558 653.707 16.7022C654.053 17.3248 654.365 18.0126 654.637 18.7553C653.017 18.3519 651.237 18.1141 649.37 18.0773V13.0476Z" fill="#3D3D3D"/>
</g>
<g clip-path="url(#clip2_8251_34180)">
<path d="M843.363 32.0678H851.808V29.4337H846.365V19.5117H843.363V32.0678Z" fill="#3D3D3D"/>
<path d="M856.809 30.313C855.605 30.313 854.978 29.2242 854.978 27.5911C854.978 25.9579 855.605 24.8515 856.809 24.8515C858.013 24.8515 858.658 25.9579 858.658 27.5911C858.658 29.2242 858.013 30.313 856.809 30.313ZM856.826 32.3501C859.624 32.3501 861.456 30.2954 861.456 27.5911C861.456 24.8867 859.624 22.832 856.826 22.832C854.045 22.832 852.18 24.8867 852.18 27.5911C852.18 30.2954 854.045 32.3501 856.826 32.3501Z" fill="#3D3D3D"/>
<path d="M866.301 35.1754C867.59 35.1754 868.726 34.8769 869.489 34.1745C870.184 33.5247 870.642 32.5413 870.642 31.1891V23.0759H867.997V24.0418H867.963C867.454 23.2866 866.674 22.8125 865.521 22.8125C863.367 22.8125 861.875 24.674 861.875 27.3081C861.875 30.0652 863.69 31.5754 865.64 31.5754C866.691 31.5754 867.352 31.1364 867.861 30.5393H867.929V31.4349C867.929 32.5237 867.437 33.1559 866.267 33.1559C865.351 33.1559 864.894 32.752 864.741 32.2779H862.062C862.333 34.1569 863.91 35.1754 866.301 35.1754ZM866.284 29.4505C865.25 29.4505 864.571 28.5725 864.571 27.2203C864.571 25.8505 865.25 24.9725 866.284 24.9725C867.437 24.9725 868.048 25.991 868.048 27.2027C868.048 28.4671 867.488 29.4505 866.284 29.4505Z" fill="#3D3D3D"/>
<path d="M876.083 30.313C874.879 30.313 874.251 29.2242 874.251 27.5911C874.251 25.9579 874.879 24.8515 876.083 24.8515C877.287 24.8515 877.931 25.9579 877.931 27.5911C877.931 29.2242 877.287 30.313 876.083 30.313ZM876.1 32.3501C878.898 32.3501 880.729 30.2954 880.729 27.5911C880.729 24.8867 878.898 22.832 876.1 22.832C873.319 22.832 871.453 24.8867 871.453 27.5911C871.453 30.2954 873.319 32.3501 876.1 32.3501Z" fill="#3D3D3D"/>
<path d="M881.535 32.0678H884.299V23.0766H881.535V32.0678ZM881.535 21.8298H884.299V19.5117H881.535V21.8298Z" fill="#3D3D3D"/>
<path d="M885.496 35.0349H888.26V31.1364H888.294C888.837 31.8915 889.634 32.3481 890.753 32.3481C893.025 32.3481 894.535 30.4866 894.535 27.5715C894.535 24.8671 893.127 22.8125 890.821 22.8125C889.634 22.8125 888.786 23.3569 888.192 24.1647H888.142V23.0759H885.496V35.0349ZM890.041 30.1354C888.854 30.1354 888.175 29.1345 888.175 27.6769C888.175 26.2193 888.786 25.113 889.99 25.113C891.177 25.113 891.737 26.1315 891.737 27.6769C891.737 29.2047 891.092 30.1354 890.041 30.1354Z" fill="#3D3D3D"/>
<path d="M899.039 32.3481C901.311 32.3481 902.99 31.3296 902.99 29.3627C902.99 27.0623 901.193 26.6584 899.666 26.3949C898.564 26.1842 897.581 26.0964 897.581 25.4642C897.581 24.9023 898.106 24.6388 898.785 24.6388C899.548 24.6388 900.073 24.8847 900.175 25.6925H902.719C902.583 23.9188 901.26 22.8125 898.802 22.8125C896.75 22.8125 895.054 23.7959 895.054 25.6925C895.054 27.7998 896.665 28.2213 898.174 28.4847C899.327 28.6954 900.379 28.7832 900.379 29.591C900.379 30.1705 899.853 30.4866 899.022 30.4866C898.106 30.4866 897.53 30.0476 897.428 29.152H894.816C894.901 31.1364 896.495 32.3481 899.039 32.3481Z" fill="#3D3D3D"/>
<path d="M906.744 32.3328C907.948 32.3328 908.711 31.8411 909.338 30.963H909.389V32.0693H912.035V23.0781H909.271V28.1006C909.271 29.1718 908.694 29.9093 907.744 29.9093C906.863 29.9093 906.439 29.365 906.439 28.3815V23.0781H903.691V28.9786C903.691 30.9806 904.743 32.3328 906.744 32.3328Z" fill="#3D3D3D"/>
<path d="M913.238 32.0671H916.002V27.0271C916.002 25.9559 916.511 25.2008 917.376 25.2008C918.207 25.2008 918.597 25.7627 918.597 26.7286V32.0671H921.361V27.0271C921.361 25.9559 921.853 25.2008 922.735 25.2008C923.566 25.2008 923.956 25.7627 923.956 26.7286V32.0671H926.72V26.2193C926.72 24.1998 925.736 22.8125 923.769 22.8125C922.65 22.8125 921.717 23.3042 921.039 24.393H921.005C920.564 23.4271 919.699 22.8125 918.563 22.8125C917.308 22.8125 916.477 23.4271 915.935 24.3579H915.884V23.0759H913.238V32.0671Z" fill="#3D3D3D"/>
<path fill-rule="evenodd" clip-rule="evenodd" d="M815.114 13.8474C814.103 14.5794 813.189 15.4448 812.395 16.419C815.638 16.1073 819.758 16.6163 824.541 19.0929C829.648 21.7374 833.761 21.8268 836.623 21.2551C836.364 20.4408 836.037 19.6581 835.649 18.9141C832.373 19.272 828.172 18.7983 823.277 16.2636C820.168 14.654 817.428 13.9909 815.114 13.8474ZM833.735 16.0929C831.148 13.099 827.387 11.2148 823.202 11.2148C821.973 11.2148 820.78 11.3774 819.643 11.6828C821.183 12.1178 822.819 12.7543 824.541 13.6458C828.125 15.5016 831.219 16.0991 833.735 16.0929ZM837.235 24.1134C833.777 24.8206 829.002 24.6753 823.277 21.7107C817.924 18.9392 813.663 18.9741 810.79 19.6353C810.642 19.6694 810.497 19.7053 810.356 19.7426C809.979 20.5898 809.679 21.4808 809.464 22.4059C809.694 22.3423 809.932 22.2818 810.177 22.2253C813.663 21.4231 818.588 21.4579 824.541 24.54C829.893 27.3116 834.154 27.2767 837.027 26.6154C837.126 26.5928 837.223 26.5694 837.318 26.5453C837.329 26.3146 837.334 26.0824 837.334 25.849C837.334 25.2618 837.3 24.6826 837.235 24.1134ZM836.857 29.6336C833.432 30.2536 828.796 30.0156 823.277 27.1579C817.924 24.3863 813.663 24.4212 810.79 25.0824C810.152 25.2291 809.579 25.4079 809.072 25.5966C809.071 25.6805 809.07 25.7647 809.07 25.849C809.07 33.9312 815.397 40.4831 823.202 40.4831C829.743 40.4831 835.246 35.8813 836.857 29.6336Z" fill="#3D3D3D"/>
</g>
<g clip-path="url(#clip3_8251_34180)">
<path d="M1085.43 32.6678H1088.73V20.3558H1085.43V32.6678ZM1085.43 18.4358H1088.73V15.5078H1085.43V18.4358Z" fill="#3D3D3D"/>
<path d="M1090.85 36.6996H1094.15V31.2755H1094.19C1094.9 32.3316 1096.03 33.0276 1097.78 33.0276C1100.98 33.0276 1103.16 30.5076 1103.16 26.5236C1103.16 22.6835 1101.05 20.0195 1097.75 20.0195C1096.06 20.0195 1094.9 20.8116 1094.1 21.8915H1094.02V20.3555H1090.85V36.6996ZM1097.08 30.3156C1095.11 30.3156 1094.07 28.8516 1094.07 26.6196C1094.07 24.4115 1094.9 22.6596 1096.96 22.6596C1098.99 22.6596 1099.81 24.2916 1099.81 26.6196C1099.81 28.9475 1098.75 30.3156 1097.08 30.3156Z" fill="#3D3D3D"/>
<path d="M1109.73 33.0276C1112.83 33.0276 1114.96 31.5396 1114.96 29.0675C1114.96 26.1876 1112.66 25.6116 1110.57 25.1796C1108.81 24.8196 1107.16 24.7235 1107.16 23.6676C1107.16 22.7796 1108.01 22.2996 1109.29 22.2996C1110.7 22.2996 1111.54 22.7796 1111.69 24.0996H1114.67C1114.43 21.6276 1112.61 20.0195 1109.34 20.0195C1106.51 20.0195 1104.28 21.2916 1104.28 23.9556C1104.28 26.6436 1106.46 27.2435 1108.69 27.6756C1110.38 28.0116 1111.95 28.1316 1111.95 29.3076C1111.95 30.1716 1111.13 30.7236 1109.68 30.7236C1108.2 30.7236 1107.18 30.0995 1106.97 28.6836H1103.91C1104.11 31.2995 1106.12 33.0276 1109.73 33.0276Z" fill="#3D3D3D"/>
<path d="M1127.46 32.6675V20.3555H1124.17V27.4595C1124.17 29.0915 1123.23 30.2435 1121.68 30.2435C1120.27 30.2435 1119.62 29.4515 1119.62 28.0115V20.3555H1116.35V28.5635C1116.35 31.2515 1117.9 33.0035 1120.66 33.0035C1122.4 33.0035 1123.37 32.3555 1124.22 31.2275H1124.29V32.6675H1127.46Z" fill="#3D3D3D"/>
<path d="M1129.59 32.6676H1132.89V25.5156C1132.89 23.8835 1133.78 22.8276 1135.12 22.8276C1136.33 22.8276 1137.03 23.5475 1137.03 24.9396V32.6676H1140.32V25.5156C1140.32 23.8835 1141.17 22.8276 1142.55 22.8276C1143.76 22.8276 1144.47 23.5475 1144.47 24.9396V32.6676H1147.76V24.3875C1147.76 21.6995 1146.28 20.0195 1143.67 20.0195C1142.09 20.0195 1140.78 20.8355 1139.94 22.1795H1139.89C1139.28 20.8835 1138.02 20.0195 1136.45 20.0195C1134.73 20.0195 1133.52 20.8835 1132.84 22.0115H1132.77V20.3555H1129.59V32.6676Z" fill="#3D3D3D"/>
<path d="M999.582 32.6678H1002.88V15.5078H999.582V32.6678Z" fill="#3D3D3D"/>
<path d="M1010.93 33.0276C1014.78 33.0276 1017.42 30.1956 1017.42 26.5236C1017.42 22.8515 1014.78 20.0195 1010.93 20.0195C1007.08 20.0195 1004.44 22.8515 1004.44 26.5236C1004.44 30.1956 1007.08 33.0276 1010.93 33.0276ZM1010.93 30.5316C1008.89 30.5316 1007.78 28.9235 1007.78 26.5236C1007.78 24.1236 1008.89 22.4916 1010.93 22.4916C1012.94 22.4916 1014.08 24.1236 1014.08 26.5236C1014.08 28.9235 1012.94 30.5316 1010.93 30.5316Z" fill="#3D3D3D"/>
<path d="M1024.43 36.8675C1026.27 36.8675 1027.87 36.4356 1028.91 35.4755C1029.83 34.6355 1030.39 33.4595 1030.39 31.7316V20.3555H1027.21V21.6516H1027.16C1026.41 20.6196 1025.27 20.0195 1023.72 20.0195C1020.58 20.0195 1018.35 22.3715 1018.35 26.0435C1018.35 29.7635 1021.06 31.9235 1023.82 31.9235C1025.4 31.9235 1026.34 31.2995 1027.07 30.4835H1027.14V31.8275C1027.14 33.5075 1026.24 34.3956 1024.38 34.3956C1022.85 34.3956 1022.15 33.7955 1021.88 33.0276H1018.61C1018.95 35.4276 1021.04 36.8675 1024.43 36.8675ZM1024.38 29.3076C1022.68 29.3076 1021.57 28.0835 1021.57 25.9956C1021.57 23.9316 1022.68 22.6356 1024.35 22.6356C1026.34 22.6356 1027.31 24.1716 1027.31 25.9716C1027.31 27.7955 1026.46 29.3076 1024.38 29.3076Z" fill="#3D3D3D"/>
<path d="M1038.39 33.0276C1042.24 33.0276 1044.88 30.1956 1044.88 26.5236C1044.88 22.8515 1042.24 20.0195 1038.39 20.0195C1034.54 20.0195 1031.9 22.8515 1031.9 26.5236C1031.9 30.1956 1034.54 33.0276 1038.39 33.0276ZM1038.39 30.5316C1036.35 30.5316 1035.24 28.9235 1035.24 26.5236C1035.24 24.1236 1036.35 22.4916 1038.39 22.4916C1040.4 22.4916 1041.54 24.1236 1041.54 26.5236C1041.54 28.9235 1040.4 30.5316 1038.39 30.5316Z" fill="#3D3D3D"/>
<path d="M1148.96 18.332C1148.96 17.7797 1149.41 17.332 1149.97 17.332H1151.98C1152.54 17.332 1152.99 17.7797 1152.99 18.332C1152.99 18.8843 1152.54 19.332 1151.98 19.332H1149.97C1149.41 19.332 1148.96 18.8843 1148.96 18.332Z" fill="#3D3D3D"/>
<path fill-rule="evenodd" clip-rule="evenodd" d="M1064.86 12C1072.66 12 1078.99 18.268 1078.99 26C1078.99 33.732 1072.66 40 1064.86 40C1057.06 40 1050.73 33.732 1050.73 26C1050.73 18.268 1057.06 12 1064.86 12ZM1064.35 13.0476C1062.74 13.2724 1061.2 14.5558 1060.01 16.7022C1059.66 17.3248 1059.35 18.0126 1059.08 18.7553C1060.7 18.3519 1062.48 18.1141 1064.35 18.0773V13.0476ZM1057.89 19.0916C1058.22 18.0407 1058.64 17.0739 1059.12 16.2145C1059.71 15.1504 1060.41 14.2316 1061.2 13.5258C1056.9 14.7617 1053.52 18.1158 1052.27 22.371C1052.98 21.5885 1053.91 20.8939 1054.98 20.3087C1055.85 19.836 1056.83 19.4264 1057.89 19.0916ZM1057.55 20.2748C1057.14 21.88 1056.9 23.6434 1056.86 25.494H1051.79C1052.01 23.8968 1053.31 22.376 1055.48 21.1955C1056.1 20.853 1056.8 20.5441 1057.55 20.2748ZM1057.89 25.494C1057.93 23.4744 1058.22 21.5784 1058.71 19.9031C1060.4 19.4221 1062.31 19.1313 1064.35 19.0895V21.2756C1063.59 23.2043 1062.04 24.7408 1060.09 25.494H1057.89ZM1056.86 26.506H1051.79C1052.01 28.1032 1053.31 29.624 1055.48 30.8045C1056.1 31.147 1056.8 31.4559 1057.55 31.7252C1057.14 30.12 1056.9 28.3566 1056.86 26.506ZM1058.71 32.0969C1058.22 30.4216 1057.93 28.5256 1057.89 26.506H1060.09C1062.04 27.2592 1063.59 28.7957 1064.35 30.7244V32.9105C1062.31 32.8687 1060.4 32.5779 1058.71 32.0969ZM1057.89 32.9084C1056.83 32.5736 1055.85 32.164 1054.98 31.6913C1053.91 31.1061 1052.98 30.4115 1052.27 29.629C1053.52 33.8842 1056.9 37.2384 1061.2 38.4741C1060.41 37.7684 1059.71 36.8496 1059.12 35.7855C1058.64 34.9261 1058.22 33.9593 1057.89 32.9084ZM1064.35 38.9524C1062.74 38.7276 1061.2 37.4442 1060.01 35.2978C1059.66 34.6752 1059.35 33.9873 1059.08 33.2447C1060.7 33.6481 1062.48 33.8859 1064.35 33.9227V38.9524ZM1068.52 38.4741C1069.31 37.7684 1070.01 36.8496 1070.6 35.7855C1071.08 34.9261 1071.49 33.9593 1071.83 32.9084C1072.89 32.5736 1073.87 32.164 1074.73 31.6913C1075.81 31.1061 1076.74 30.4115 1077.45 29.629C1076.2 33.8842 1072.82 37.2384 1068.52 38.4741ZM1070.64 33.2447C1070.36 33.9873 1070.05 34.6752 1069.71 35.2978C1068.52 37.4442 1066.98 38.7276 1065.37 38.9524V33.9227C1067.24 33.8859 1069.02 33.6481 1070.64 33.2447ZM1072.17 31.7252C1072.92 31.4559 1073.61 31.147 1074.24 30.8045C1076.41 29.624 1077.7 28.1032 1077.93 26.506H1072.85C1072.82 28.3566 1072.58 30.12 1072.17 31.7252ZM1071.83 26.506C1071.79 28.5256 1071.5 30.4216 1071.01 32.0969C1069.32 32.5779 1067.41 32.8687 1065.37 32.9105V30.726C1066.13 28.7966 1067.68 27.2594 1069.63 26.506H1071.83ZM1072.85 25.494H1077.93C1077.7 23.8968 1076.41 22.376 1074.24 21.1955C1073.61 20.853 1072.92 20.5441 1072.17 20.2748C1072.58 21.88 1072.82 23.6434 1072.85 25.494ZM1071.01 19.9031C1071.5 21.5784 1071.79 23.4744 1071.83 25.494H1069.63C1067.68 24.7406 1066.13 23.2034 1065.37 21.2739V19.0895C1067.41 19.1313 1069.32 19.4221 1071.01 19.9031ZM1071.83 19.0916C1072.89 19.4264 1073.87 19.836 1074.73 20.3087C1075.81 20.8939 1076.74 21.5885 1077.45 22.371C1076.2 18.1158 1072.82 14.7617 1068.52 13.5258C1069.31 14.2316 1070.01 15.1504 1070.6 16.2145C1071.08 17.0739 1071.49 18.0407 1071.83 19.0916ZM1065.37 13.0476C1066.98 13.2724 1068.52 14.5558 1069.71 16.7022C1070.05 17.3248 1070.36 18.0126 1070.64 18.7553C1069.02 18.3519 1067.24 18.1141 1065.37 18.0773V13.0476Z" fill="#3D3D3D"/>
</g>
<path d="M1231.03 47.133V36.5391H1229.27V47.133H1231.03Z" fill="#3D3D3D"/>
<path d="M1232.11 43.6045C1232.11 45.7689 1233.58 47.3067 1235.81 47.3067C1238.04 47.3067 1239.52 45.7689 1239.52 43.6045C1239.52 41.4401 1238.04 39.9023 1235.81 39.9023C1233.58 39.9023 1232.11 41.4401 1232.11 43.6045ZM1233.88 43.6045C1233.88 42.3372 1234.64 41.4544 1235.81 41.4544C1236.98 41.4544 1237.74 42.3372 1237.74 43.6045C1237.74 44.8575 1236.98 45.7546 1235.81 45.7546C1234.64 45.7546 1233.88 44.8575 1233.88 43.6045Z" fill="#3D3D3D"/>
<path d="M1240.11 43.4594C1240.11 45.5099 1241.45 46.9907 1243.45 46.9907C1244.49 46.9907 1245.38 46.5778 1245.83 45.8943V47.0904C1245.83 48.2437 1245.09 49.0127 1243.87 49.0127C1242.77 49.0127 1242.02 48.4858 1241.92 47.5603H1240.15C1240.38 49.3971 1241.81 50.5932 1243.77 50.5932C1246.07 50.5932 1247.54 49.0981 1247.54 46.7771V40.099H1245.99L1245.89 41.053C1245.45 40.3125 1244.56 39.8711 1243.51 39.8711C1241.47 39.8711 1240.11 41.3947 1240.11 43.4594ZM1241.89 43.4167C1241.89 42.249 1242.64 41.3947 1243.75 41.3947C1244.96 41.3947 1245.77 42.2633 1245.77 43.4167C1245.77 44.5843 1244.96 45.4813 1243.75 45.4813C1242.66 45.4813 1241.89 44.5985 1241.89 43.4167Z" fill="#3D3D3D"/>
<path d="M1248.41 43.6045C1248.41 45.7689 1249.88 47.3067 1252.12 47.3067C1254.35 47.3067 1255.82 45.7689 1255.82 43.6045C1255.82 41.4401 1254.35 39.9023 1252.12 39.9023C1249.88 39.9023 1248.41 41.4401 1248.41 43.6045ZM1250.19 43.6045C1250.19 42.3372 1250.95 41.4544 1252.12 41.4544C1253.29 41.4544 1254.05 42.3372 1254.05 43.6045C1254.05 44.8575 1253.29 45.7546 1252.12 45.7546C1250.95 45.7546 1250.19 44.8575 1250.19 43.6045Z" fill="#3D3D3D"/>
<path d="M1257.73 38.6623C1258.3 38.6623 1258.78 38.2066 1258.78 37.6228C1258.78 37.0533 1258.3 36.5977 1257.73 36.5977C1257.13 36.5977 1256.69 37.0533 1256.69 37.6228C1256.69 38.2066 1257.13 38.6623 1257.73 38.6623ZM1256.85 47.1346H1258.6V40.1005H1256.85V47.1346Z" fill="#3D3D3D"/>
<path d="M1260.15 50.3952H1261.86V46.1662C1262.31 46.8924 1263.28 47.3196 1264.34 47.3196C1266.45 47.3196 1267.7 45.7248 1267.67 43.5319C1267.63 41.3249 1266.35 39.8867 1264.33 39.8867C1263.25 39.8867 1262.27 40.3566 1261.83 41.1682L1261.73 40.1003H1260.15V50.3952ZM1261.94 43.6174C1261.94 42.3501 1262.71 41.4672 1263.94 41.4672C1265.16 41.4672 1265.9 42.3643 1265.9 43.6174C1265.9 44.8704 1265.16 45.7532 1263.94 45.7532C1262.71 45.7532 1261.94 44.8847 1261.94 43.6174Z" fill="#3D3D3D"/>
<path d="M1268.12 45.0271C1268.17 46.4225 1269.27 47.3196 1270.97 47.3196C1272.64 47.3196 1273.78 46.4368 1273.78 45.0698C1273.78 44.0588 1273.15 43.3753 1271.98 43.0906L1270.73 42.7915C1270.19 42.6491 1269.83 42.464 1269.83 42.0084C1269.83 41.5242 1270.22 41.1825 1270.86 41.1825C1271.52 41.1825 1271.95 41.5527 1271.95 42.165H1273.55C1273.49 40.7695 1272.44 39.8867 1270.9 39.8867C1269.37 39.8867 1268.23 40.7695 1268.23 42.108C1268.23 43.0194 1268.77 43.774 1270.14 44.13L1271.38 44.4433C1271.84 44.5714 1272.12 44.785 1272.12 45.1837C1272.12 45.739 1271.59 45.9953 1270.94 45.9953C1270.16 45.9953 1269.72 45.6393 1269.72 45.0271H1268.12Z" fill="#3D3D3D"/>
<path d="M1277.43 47.3208C1278.4 47.3208 1279.32 46.8793 1279.74 46.2244L1279.86 47.1357H1281.5V40.1016H1279.74V43.7895C1279.74 45.0567 1279.25 45.7687 1278.1 45.7687C1277.2 45.7687 1276.58 45.3415 1276.58 43.8891V40.1016H1274.82V44.5015C1274.82 46.1816 1275.75 47.3208 1277.43 47.3208Z" fill="#3D3D3D"/>
<path d="M1284.81 47.1345V43.0906C1284.81 41.9514 1285.49 41.4103 1286.32 41.4103C1287.16 41.4103 1287.71 41.9371 1287.71 42.9339V47.1345H1289.42V43.1047C1289.42 41.9514 1290.09 41.4103 1290.92 41.4103C1291.77 41.4103 1292.32 41.9371 1292.32 42.9339V47.1345H1294.02V42.5352C1294.02 40.912 1293.11 39.8867 1291.38 39.8867C1290.3 39.8867 1289.45 40.3993 1289.11 41.2252C1288.72 40.3993 1287.94 39.8867 1286.76 39.8867C1285.92 39.8867 1285.17 40.2712 1284.75 40.8977L1284.67 40.1003H1283.05V47.1345H1284.81Z" fill="#3D3D3D"/>
<path d="M1257.36 26.9506C1255.05 31.0683 1250.33 33.0273 1245.56 33.0273H1226.42C1246.34 30.5679 1260.22 20.73 1262 7.02734C1263.78 20.73 1277.65 30.5679 1297.58 33.0273H1278.44C1273.67 33.0273 1268.95 31.0683 1266.63 26.9506C1264.13 22.4938 1262.53 17.4508 1262 11.9463C1261.47 17.4508 1259.87 22.4938 1257.36 26.9506Z" fill="#3D3D3D"/>
<path d="M1246.42 25.4958C1245.3 26.1172 1244.13 26.7009 1242.9 27.2446C1242.2 24.8592 1241.94 22.3565 1242.15 19.8634C1242.42 16.5653 1243.49 13.3856 1245.27 10.6062C1247.05 7.82684 1249.48 5.53336 1252.34 3.92901C1255.21 2.32467 1258.42 1.45896 1261.7 1.40858C1264.97 1.3582 1268.21 2.1247 1271.12 3.64018C1274.04 5.15566 1276.53 7.37332 1278.4 10.0968C1280.26 12.8202 1281.43 15.9654 1281.8 19.2536C1282.1 21.9432 1281.86 24.6607 1281.1 27.2446C1279.87 26.7009 1278.7 26.1171 1277.58 25.4957C1278.05 23.6067 1278.18 21.6416 1277.96 19.6945C1277.67 17.0429 1276.72 14.5066 1275.22 12.3104C1273.72 10.1143 1271.71 8.3259 1269.36 7.10383C1267.01 5.88174 1264.4 5.26364 1261.76 5.30427C1259.11 5.34489 1256.52 6.043 1254.21 7.33671C1251.9 8.63046 1249.94 10.4799 1248.51 12.7212C1247.07 14.9626 1246.21 17.5266 1245.99 20.1863C1245.84 21.9739 1245.99 23.7678 1246.42 25.4958Z" fill="#3D3D3D"/>
<g clip-path="url(#clip4_8251_34180)">
<path d="M327.363 100.068H335.808V97.4337H330.365V87.5117H327.363V100.068Z" fill="#3D3D3D"/>
<path d="M340.809 98.313C339.605 98.313 338.978 97.2242 338.978 95.5911C338.978 93.9579 339.605 92.8515 340.809 92.8515C342.013 92.8515 342.658 93.9579 342.658 95.5911C342.658 97.2242 342.013 98.313 340.809 98.313ZM340.826 100.35C343.624 100.35 345.456 98.2954 345.456 95.5911C345.456 92.8867 343.624 90.832 340.826 90.832C338.045 90.832 336.18 92.8867 336.18 95.5911C336.18 98.2954 338.045 100.35 340.826 100.35Z" fill="#3D3D3D"/>
<path d="M350.301 103.175C351.59 103.175 352.726 102.877 353.489 102.174C354.184 101.525 354.642 100.541 354.642 99.1891V91.0759H351.997V92.0418H351.963C351.454 91.2866 350.674 90.8125 349.521 90.8125C347.367 90.8125 345.875 92.674 345.875 95.3081C345.875 98.0652 347.69 99.5754 349.64 99.5754C350.691 99.5754 351.352 99.1364 351.861 98.5393H351.929V99.4349C351.929 100.524 351.437 101.156 350.267 101.156C349.351 101.156 348.894 100.752 348.741 100.278H346.062C346.333 102.157 347.91 103.175 350.301 103.175ZM350.284 97.4505C349.25 97.4505 348.571 96.5725 348.571 95.2203C348.571 93.8505 349.25 92.9725 350.284 92.9725C351.437 92.9725 352.048 93.991 352.048 95.2027C352.048 96.4671 351.488 97.4505 350.284 97.4505Z" fill="#3D3D3D"/>
<path d="M360.083 98.313C358.879 98.313 358.251 97.2242 358.251 95.5911C358.251 93.9579 358.879 92.8515 360.083 92.8515C361.287 92.8515 361.931 93.9579 361.931 95.5911C361.931 97.2242 361.287 98.313 360.083 98.313ZM360.1 100.35C362.898 100.35 364.729 98.2954 364.729 95.5911C364.729 92.8867 362.898 90.832 360.1 90.832C357.319 90.832 355.453 92.8867 355.453 95.5911C355.453 98.2954 357.319 100.35 360.1 100.35Z" fill="#3D3D3D"/>
<path d="M365.535 100.068H368.299V91.0766H365.535V100.068ZM365.535 89.8298H368.299V87.5117H365.535V89.8298Z" fill="#3D3D3D"/>
<path d="M369.496 103.035H372.26V99.1364H372.294C372.837 99.8915 373.634 100.348 374.753 100.348C377.025 100.348 378.535 98.4866 378.535 95.5715C378.535 92.8671 377.127 90.8125 374.821 90.8125C373.634 90.8125 372.786 91.3569 372.192 92.1647H372.142V91.0759H369.496V103.035ZM374.041 98.1354C372.854 98.1354 372.175 97.1345 372.175 95.6769C372.175 94.2193 372.786 93.113 373.99 93.113C375.177 93.113 375.737 94.1315 375.737 95.6769C375.737 97.2047 375.092 98.1354 374.041 98.1354Z" fill="#3D3D3D"/>
<path d="M383.039 100.348C385.311 100.348 386.99 99.3296 386.99 97.3627C386.99 95.0623 385.193 94.6584 383.666 94.3949C382.564 94.1842 381.581 94.0964 381.581 93.4642C381.581 92.9023 382.106 92.6388 382.785 92.6388C383.548 92.6388 384.073 92.8847 384.175 93.6925H386.719C386.583 91.9188 385.26 90.8125 382.802 90.8125C380.75 90.8125 379.054 91.7959 379.054 93.6925C379.054 95.7998 380.665 96.2213 382.174 96.4847C383.327 96.6954 384.379 96.7832 384.379 97.591C384.379 98.1705 383.853 98.4866 383.022 98.4866C382.106 98.4866 381.53 98.0476 381.428 97.152H378.816C378.901 99.1364 380.495 100.348 383.039 100.348Z" fill="#3D3D3D"/>
<path d="M390.744 100.333C391.948 100.333 392.711 99.8411 393.338 98.963H393.389V100.069H396.035V91.0781H393.271V96.1006C393.271 97.1718 392.694 97.9093 391.744 97.9093C390.863 97.9093 390.439 97.365 390.439 96.3815V91.0781H387.691V96.9786C387.691 98.9806 388.743 100.333 390.744 100.333Z" fill="#3D3D3D"/>
<path d="M397.238 100.067H400.002V95.0271C400.002 93.9559 400.511 93.2008 401.376 93.2008C402.207 93.2008 402.597 93.7627 402.597 94.7286V100.067H405.361V95.0271C405.361 93.9559 405.853 93.2008 406.735 93.2008C407.566 93.2008 407.956 93.7627 407.956 94.7286V100.067H410.72V94.2193C410.72 92.1998 409.736 90.8125 407.769 90.8125C406.65 90.8125 405.717 91.3042 405.039 92.393H405.005C404.564 91.4271 403.699 90.8125 402.563 90.8125C401.308 90.8125 400.477 91.4271 399.935 92.3579H399.884V91.0759H397.238V100.067Z" fill="#3D3D3D"/>
<path fill-rule="evenodd" clip-rule="evenodd" d="M299.114 81.8474C298.103 82.5794 297.189 83.4448 296.395 84.419C299.638 84.1073 303.758 84.6163 308.541 87.0929C313.648 89.7374 317.761 89.8268 320.623 89.2551C320.364 88.4408 320.037 87.6581 319.649 86.9141C316.373 87.272 312.172 86.7983 307.277 84.2636C304.168 82.654 301.428 81.9909 299.114 81.8474ZM317.735 84.0929C315.148 81.099 311.387 79.2148 307.202 79.2148C305.973 79.2148 304.78 79.3774 303.643 79.6828C305.183 80.1178 306.819 80.7543 308.541 81.6458C312.125 83.5016 315.219 84.0991 317.735 84.0929ZM321.235 92.1134C317.777 92.8206 313.002 92.6753 307.277 89.7107C301.924 86.9392 297.663 86.9741 294.79 87.6353C294.642 87.6694 294.497 87.7053 294.356 87.7426C293.979 88.5898 293.679 89.4808 293.464 90.4059C293.694 90.3423 293.932 90.2818 294.177 90.2253C297.663 89.4231 302.588 89.4579 308.541 92.54C313.893 95.3116 318.154 95.2767 321.027 94.6154C321.126 94.5928 321.223 94.5694 321.318 94.5453C321.329 94.3146 321.334 94.0824 321.334 93.849C321.334 93.2618 321.3 92.6826 321.235 92.1134ZM320.857 97.6336C317.432 98.2536 312.796 98.0156 307.277 95.1579C301.924 92.3863 297.663 92.4212 294.79 93.0824C294.152 93.2291 293.579 93.4079 293.072 93.5966C293.071 93.6805 293.07 93.7647 293.07 93.849C293.07 101.931 299.397 108.483 307.202 108.483C313.743 108.483 319.246 103.881 320.857 97.6336Z" fill="#3D3D3D"/>
</g>
<g clip-path="url(#clip5_8251_34180)">
<path d="M522.156 100.185H530.622V97.5509H525.165V87.6289H522.156V100.185Z" fill="#3D3D3D"/>
<path d="M535.637 98.4302C534.43 98.4302 533.801 97.3414 533.801 95.7082C533.801 94.0751 534.43 92.9687 535.637 92.9687C536.844 92.9687 537.49 94.0751 537.49 95.7082C537.49 97.3414 536.844 98.4302 535.637 98.4302ZM535.654 100.467C538.459 100.467 540.295 98.4126 540.295 95.7082C540.295 93.0039 538.459 90.9492 535.654 90.9492C532.866 90.9492 530.996 93.0039 530.996 95.7082C530.996 98.4126 532.866 100.467 535.654 100.467Z" fill="#3D3D3D"/>
<path d="M545.152 103.293C546.444 103.293 547.583 102.994 548.348 102.292C549.045 101.642 549.504 100.658 549.504 99.3063V91.1931H546.852V92.159H546.818C546.308 91.4038 545.526 90.9297 544.37 90.9297C542.211 90.9297 540.715 92.7912 540.715 95.4253C540.715 98.1824 542.534 99.6926 544.489 99.6926C545.543 99.6926 546.206 99.2536 546.716 98.6565H546.784V99.5521C546.784 100.641 546.291 101.273 545.118 101.273C544.2 101.273 543.741 100.869 543.588 100.395H540.902C541.174 102.274 542.755 103.293 545.152 103.293ZM545.135 97.5677C544.098 97.5677 543.418 96.6897 543.418 95.3375C543.418 93.9677 544.098 93.0897 545.135 93.0897C546.291 93.0897 546.903 94.1082 546.903 95.3199C546.903 96.5843 546.342 97.5677 545.135 97.5677Z" fill="#3D3D3D"/>
<path d="M554.954 98.4302C553.747 98.4302 553.117 97.3414 553.117 95.7082C553.117 94.0751 553.747 92.9687 554.954 92.9687C556.161 92.9687 556.806 94.0751 556.806 95.7082C556.806 97.3414 556.161 98.4302 554.954 98.4302ZM554.97 100.467C557.775 100.467 559.611 98.4126 559.611 95.7082C559.611 93.0039 557.775 90.9492 554.97 90.9492C552.182 90.9492 550.312 93.0039 550.312 95.7082C550.312 98.4126 552.182 100.467 554.97 100.467Z" fill="#3D3D3D"/>
<path d="M560.422 100.185H563.193V91.1938H560.422V100.185ZM560.422 89.947H563.193V87.6289H560.422V89.947Z" fill="#3D3D3D"/>
<path d="M564.395 103.152H567.166V99.2536H567.2C567.744 100.009 568.543 100.465 569.665 100.465C571.943 100.465 573.456 98.6038 573.456 95.6887C573.456 92.9843 572.045 90.9297 569.733 90.9297C568.543 90.9297 567.693 91.4741 567.098 92.2819H567.047V91.1931H564.395V103.152ZM568.951 98.2526C567.761 98.2526 567.081 97.2516 567.081 95.7941C567.081 94.3365 567.693 93.2302 568.9 93.2302C570.09 93.2302 570.651 94.2487 570.651 95.7941C570.651 97.3219 570.005 98.2526 568.951 98.2526Z" fill="#3D3D3D"/>
<path d="M577.967 100.465C580.245 100.465 581.928 99.4468 581.928 97.4799C581.928 95.1794 580.126 94.7755 578.596 94.5121C577.491 94.3014 576.505 94.2136 576.505 93.5814C576.505 93.0194 577.032 92.756 577.712 92.756C578.477 92.756 579.004 93.0019 579.106 93.8097H581.656C581.52 92.036 580.194 90.9297 577.729 90.9297C575.672 90.9297 573.972 91.9131 573.972 93.8097C573.972 95.917 575.587 96.3385 577.1 96.6019C578.256 96.8126 579.31 96.9004 579.31 97.7082C579.31 98.2877 578.783 98.6038 577.95 98.6038C577.032 98.6038 576.454 98.1648 576.352 97.2692H573.734C573.819 99.2536 575.417 100.465 577.967 100.465Z" fill="#3D3D3D"/>
<path d="M585.693 100.45C586.9 100.45 587.665 99.9582 588.294 99.0802H588.345V100.187H590.997V91.1953H588.226V96.2178C588.226 97.289 587.648 98.0265 586.696 98.0265C585.812 98.0265 585.387 97.4821 585.387 96.4987V91.1953H582.633V97.0958C582.633 99.0978 583.687 100.45 585.693 100.45Z" fill="#3D3D3D"/>
<path d="M592.203 100.184H594.974V95.1443C594.974 94.0731 595.484 93.318 596.351 93.318C597.184 93.318 597.575 93.8799 597.575 94.8458V100.184H600.346V95.1443C600.346 94.0731 600.839 93.318 601.723 93.318C602.556 93.318 602.947 93.8799 602.947 94.8458V100.184H605.718V94.3365C605.718 92.317 604.732 90.9297 602.76 90.9297C601.638 90.9297 600.703 91.4214 600.023 92.5102H599.989C599.547 91.5443 598.68 90.9297 597.541 90.9297C596.283 90.9297 595.45 91.5443 594.906 92.4751H594.855V91.1931H592.203V100.184Z" fill="#3D3D3D"/>
<path d="M505.25 80.4469L502.465 79.6758L500.117 88.7267L497.997 80.5555L495.211 81.3266L497.501 90.155L491.797 84.2628L489.758 86.3696L496.015 92.8326L488.223 90.676L487.477 93.5538L495.99 95.9102C495.892 95.4759 495.841 95.0234 495.841 94.5585C495.841 91.2675 498.423 88.5997 501.609 88.5997C504.795 88.5997 507.377 91.2675 507.377 94.5585C507.377 95.0204 507.327 95.4701 507.23 95.9018L514.967 98.0433L515.714 95.1655L507.167 92.7997L514.959 90.643L514.212 87.7651L505.665 90.1308L511.369 84.2386L509.33 82.1319L503.16 88.5053L505.25 80.4469Z" fill="#3D3D3D"/>
<path d="M507.22 95.9336C506.981 96.9767 506.477 97.9138 505.785 98.6646L511.39 104.455L513.43 102.348L507.22 95.9336Z" fill="#3D3D3D"/>
<path d="M505.73 98.7266C505.03 99.4654 504.145 100.017 503.152 100.301L505.192 108.164L507.978 107.393L505.73 98.7266Z" fill="#3D3D3D"/>
<path d="M503.048 100.328C502.587 100.45 502.105 100.515 501.607 100.515C501.075 100.515 500.559 100.44 500.069 100.301L498.027 108.171L500.813 108.942L503.048 100.328Z" fill="#3D3D3D"/>
<path d="M499.972 100.273C498.994 99.9751 498.125 99.4167 497.439 98.6758L491.82 104.48L493.86 106.587L499.972 100.273Z" fill="#3D3D3D"/>
<path d="M497.392 98.623C496.717 97.8774 496.226 96.9528 495.993 95.9258L488.23 98.0743L488.977 100.952L497.392 98.623Z" fill="#3D3D3D"/>
</g>
<path d="M688.528 115.133V104.539H686.77V115.133H688.528Z" fill="#3D3D3D"/>
<path d="M689.605 111.605C689.605 113.769 691.076 115.307 693.31 115.307C695.545 115.307 697.015 113.769 697.015 111.605C697.015 109.44 695.545 107.902 693.31 107.902C691.076 107.902 689.605 109.44 689.605 111.605ZM691.379 111.605C691.379 110.337 692.143 109.454 693.31 109.454C694.478 109.454 695.242 110.337 695.242 111.605C695.242 112.858 694.478 113.755 693.31 113.755C692.143 113.755 691.379 112.858 691.379 111.605Z" fill="#3D3D3D"/>
<path d="M697.605 111.459C697.605 113.51 698.946 114.991 700.95 114.991C701.988 114.991 702.882 114.578 703.328 113.894V115.09C703.328 116.244 702.593 117.013 701.368 117.013C700.272 117.013 699.523 116.486 699.422 115.56H697.649C697.879 117.397 699.306 118.593 701.267 118.593C703.573 118.593 705.044 117.098 705.044 114.777V108.099H703.487L703.386 109.053C702.954 108.313 702.06 107.871 701.007 107.871C698.975 107.871 697.605 109.395 697.605 111.459ZM699.393 111.417C699.393 110.249 700.143 109.395 701.253 109.395C702.463 109.395 703.271 110.263 703.271 111.417C703.271 112.584 702.463 113.481 701.253 113.481C700.157 113.481 699.393 112.599 699.393 111.417Z" fill="#3D3D3D"/>
<path d="M705.914 111.605C705.914 113.769 707.384 115.307 709.619 115.307C711.853 115.307 713.324 113.769 713.324 111.605C713.324 109.44 711.853 107.902 709.619 107.902C707.384 107.902 705.914 109.44 705.914 111.605ZM707.687 111.605C707.687 110.337 708.451 109.454 709.619 109.454C710.786 109.454 711.551 110.337 711.551 111.605C711.551 112.858 710.786 113.755 709.619 113.755C708.451 113.755 707.687 112.858 707.687 111.605Z" fill="#3D3D3D"/>
<path d="M715.225 106.662C715.802 106.662 716.278 106.207 716.278 105.623C716.278 105.053 715.802 104.598 715.225 104.598C714.634 104.598 714.188 105.053 714.188 105.623C714.188 106.207 714.634 106.662 715.225 106.662ZM714.346 115.135H716.105V108.1H714.346V115.135Z" fill="#3D3D3D"/>
<path d="M717.648 118.395H719.364V114.166C719.811 114.892 720.777 115.32 721.843 115.32C723.948 115.32 725.202 113.725 725.173 111.532C725.13 109.325 723.847 107.887 721.829 107.887C720.748 107.887 719.767 108.357 719.335 109.168L719.234 108.1H717.648V118.395ZM719.436 111.617C719.436 110.35 720.214 109.467 721.44 109.467C722.665 109.467 723.4 110.364 723.4 111.617C723.4 112.87 722.665 113.753 721.44 113.753C720.214 113.753 719.436 112.885 719.436 111.617Z" fill="#3D3D3D"/>
<path d="M725.617 113.027C725.675 114.422 726.77 115.32 728.471 115.32C730.144 115.32 731.282 114.437 731.282 113.07C731.282 112.059 730.648 111.375 729.481 111.091L728.226 110.791C727.693 110.649 727.333 110.464 727.333 110.008C727.333 109.524 727.722 109.183 728.356 109.183C729.019 109.183 729.452 109.553 729.452 110.165H731.052C730.994 108.77 729.942 107.887 728.399 107.887C726.871 107.887 725.733 108.77 725.733 110.108C725.733 111.019 726.266 111.774 727.635 112.13L728.875 112.443C729.336 112.571 729.625 112.785 729.625 113.184C729.625 113.739 729.091 113.995 728.443 113.995C727.664 113.995 727.217 113.639 727.217 113.027H725.617Z" fill="#3D3D3D"/>
<path d="M734.933 115.321C735.899 115.321 736.822 114.879 737.24 114.224L737.355 115.136H738.999V108.102H737.24V111.789C737.24 113.057 736.75 113.769 735.597 113.769C734.703 113.769 734.083 113.342 734.083 111.889V108.102H732.324V112.501C732.324 114.182 733.247 115.321 734.933 115.321Z" fill="#3D3D3D"/>
<path d="M742.309 115.134V111.091C742.309 109.951 742.987 109.41 743.823 109.41C744.659 109.41 745.207 109.937 745.207 110.934V115.134H746.922V111.105C746.922 109.951 747.585 109.41 748.422 109.41C749.272 109.41 749.82 109.937 749.82 110.934V115.134H751.521V110.535C751.521 108.912 750.613 107.887 748.883 107.887C747.802 107.887 746.951 108.399 746.605 109.225C746.216 108.399 745.438 107.887 744.256 107.887C743.419 107.887 742.67 108.271 742.252 108.898L742.165 108.1H740.551V115.134H742.309Z" fill="#3D3D3D"/>
<path d="M714.865 94.9506C712.548 99.0683 707.83 101.027 703.06 101.027H683.922C703.845 98.5679 717.72 88.73 719.499 75.0273C721.278 88.73 735.153 98.5679 755.076 101.027H735.937C731.167 101.027 726.45 99.0683 724.133 94.9506C721.625 90.4938 720.028 85.4508 719.499 79.9463C718.97 85.4508 717.372 90.4938 714.865 94.9506Z" fill="#3D3D3D"/>
<path d="M703.922 93.4958C702.805 94.1172 701.629 94.7009 700.398 95.2446C699.699 92.8592 699.441 90.3565 699.647 87.8634C699.918 84.5653 700.991 81.3856 702.769 78.6062C704.548 75.8268 706.977 73.5334 709.843 71.929C712.709 70.3247 715.922 69.459 719.198 69.4086C722.474 69.3582 725.712 70.1247 728.624 71.6402C731.537 73.1557 734.035 75.3733 735.896 78.0968C737.758 80.8202 738.926 83.9654 739.296 87.2536C739.6 89.9432 739.362 92.6607 738.604 95.2446C737.373 94.7009 736.198 94.1171 735.08 93.4957C735.551 91.6067 735.683 89.6416 735.464 87.6945C735.165 85.0429 734.223 82.5066 732.722 80.3104C731.221 78.1143 729.207 76.3259 726.858 75.1038C724.509 73.8817 721.898 73.2636 719.257 73.3043C716.615 73.3449 714.024 74.043 711.713 75.3367C709.402 76.6305 707.443 78.4799 706.009 80.7212C704.574 82.9626 703.709 85.5266 703.491 88.1863C703.343 89.9739 703.491 91.7678 703.922 93.4958Z" fill="#3D3D3D"/>
<g clip-path="url(#clip6_8251_34180)">
<path d="M919.184 100.668H922.478V88.3558H919.184V100.668ZM919.184 86.4358H922.478V83.5078H919.184V86.4358Z" fill="#3D3D3D"/>
<path d="M924.602 104.7H927.896V99.2755H927.944C928.646 100.332 929.785 101.028 931.528 101.028C934.725 101.028 936.905 98.5076 936.905 94.5236C936.905 90.6835 934.798 88.0195 931.504 88.0195C929.809 88.0195 928.646 88.8116 927.847 89.8915H927.774V88.3555H924.602V104.7ZM930.826 98.3156C928.864 98.3156 927.823 96.8516 927.823 94.6196C927.823 92.4115 928.646 90.6596 930.705 90.6596C932.74 90.6596 933.563 92.2916 933.563 94.6196C933.563 96.9475 932.497 98.3156 930.826 98.3156Z" fill="#3D3D3D"/>
<path d="M943.477 101.028C946.577 101.028 948.708 99.5396 948.708 97.0675C948.708 94.1876 946.407 93.6116 944.324 93.1796C942.556 92.8196 940.909 92.7235 940.909 91.6676C940.909 90.7796 941.757 90.2996 943.041 90.2996C944.446 90.2996 945.293 90.7796 945.438 92.0996H948.417C948.176 89.6276 946.359 88.0195 943.089 88.0195C940.255 88.0195 938.027 89.2916 938.027 91.9556C938.027 94.6436 940.207 95.2435 942.435 95.6756C944.131 96.0116 945.705 96.1316 945.705 97.3076C945.705 98.1716 944.882 98.7236 943.428 98.7236C941.951 98.7236 940.933 98.0995 940.716 96.6836H937.664C937.858 99.2995 939.868 101.028 943.477 101.028Z" fill="#3D3D3D"/>
<path d="M961.215 100.667V88.3555H957.921V95.4595C957.921 97.0915 956.976 98.2435 955.426 98.2435C954.021 98.2435 953.368 97.4515 953.368 96.0115V88.3555H950.098V96.5635C950.098 99.2515 951.648 101.003 954.409 101.003C956.153 101.003 957.122 100.355 957.969 99.2275H958.042V100.667H961.215Z" fill="#3D3D3D"/>
<path d="M963.344 100.668H966.638V93.5156C966.638 91.8835 967.534 90.8276 968.867 90.8276C970.077 90.8276 970.78 91.5475 970.78 92.9396V100.668H974.074V93.5156C974.074 91.8835 974.921 90.8276 976.302 90.8276C977.513 90.8276 978.215 91.5475 978.215 92.9396V100.668H981.509V92.3875C981.509 89.6995 980.032 88.0195 977.416 88.0195C975.842 88.0195 974.533 88.8355 973.686 90.1795H973.638C973.032 88.8835 971.773 88.0195 970.198 88.0195C968.479 88.0195 967.268 88.8835 966.59 90.0115H966.517V88.3555H963.344V100.668Z" fill="#3D3D3D"/>
<path d="M833.332 100.668H836.626V83.5078H833.332V100.668Z" fill="#3D3D3D"/>
<path d="M844.679 101.028C848.53 101.028 851.17 98.1956 851.17 94.5236C851.17 90.8515 848.53 88.0195 844.679 88.0195C840.827 88.0195 838.188 90.8515 838.188 94.5236C838.188 98.1956 840.827 101.028 844.679 101.028ZM844.679 98.5316C842.644 98.5316 841.53 96.9235 841.53 94.5236C841.53 92.1236 842.644 90.4916 844.679 90.4916C846.689 90.4916 847.827 92.1236 847.827 94.5236C847.827 96.9235 846.689 98.5316 844.679 98.5316Z" fill="#3D3D3D"/>
<path d="M858.177 104.868C860.018 104.868 861.616 104.436 862.658 103.476C863.578 102.636 864.135 101.46 864.135 99.7316V88.3555H860.962V89.6516H860.914C860.163 88.6196 859.025 88.0195 857.475 88.0195C854.326 88.0195 852.098 90.3715 852.098 94.0435C852.098 97.7635 854.81 99.9235 857.571 99.9235C859.146 99.9235 860.09 99.2995 860.817 98.4835H860.89V99.8275C860.89 101.508 859.993 102.396 858.128 102.396C856.603 102.396 855.9 101.796 855.634 101.028H852.364C852.703 103.428 854.786 104.868 858.177 104.868ZM858.128 97.3076C856.433 97.3076 855.319 96.0835 855.319 93.9956C855.319 91.9316 856.433 90.6356 858.104 90.6356C860.09 90.6356 861.059 92.1716 861.059 93.9716C861.059 95.7955 860.211 97.3076 858.128 97.3076Z" fill="#3D3D3D"/>
<path d="M872.139 101.028C875.99 101.028 878.63 98.1956 878.63 94.5236C878.63 90.8515 875.99 88.0195 872.139 88.0195C868.288 88.0195 865.648 90.8515 865.648 94.5236C865.648 98.1956 868.288 101.028 872.139 101.028ZM872.139 98.5316C870.105 98.5316 868.991 96.9235 868.991 94.5236C868.991 92.1236 870.105 90.4916 872.139 90.4916C874.15 90.4916 875.288 92.1236 875.288 94.5236C875.288 96.9235 874.15 98.5316 872.139 98.5316Z" fill="#3D3D3D"/>
<path d="M982.707 86.332C982.707 85.7797 983.159 85.332 983.717 85.332H985.735C986.292 85.332 986.744 85.7797 986.744 86.332C986.744 86.8843 986.292 87.332 985.735 87.332H983.717C983.159 87.332 982.707 86.8843 982.707 86.332Z" fill="#3D3D3D"/>
<path fill-rule="evenodd" clip-rule="evenodd" d="M898.609 80C906.412 80 912.738 86.268 912.738 94C912.738 101.732 906.412 108 898.609 108C890.806 108 884.48 101.732 884.48 94C884.48 86.268 890.806 80 898.609 80ZM898.098 81.0476C896.486 81.2724 894.952 82.5558 893.76 84.7022C893.415 85.3248 893.103 86.0126 892.831 86.7553C894.451 86.3519 896.231 86.1141 898.098 86.0773V81.0476ZM891.637 87.0916C891.975 86.0407 892.388 85.0739 892.865 84.2145C893.456 83.1504 894.157 82.2316 894.947 81.5258C890.652 82.7617 887.267 86.1158 886.02 90.371C886.732 89.5885 887.66 88.8939 888.734 88.3087C889.601 87.836 890.577 87.4264 891.637 87.0916ZM891.298 88.2748C890.891 89.88 890.651 91.6434 890.613 93.494H885.538C885.764 91.8968 887.06 90.376 889.226 89.1955C889.854 88.853 890.548 88.5441 891.298 88.2748ZM891.635 93.494C891.677 91.4744 891.971 89.5784 892.456 87.9031C894.147 87.4221 896.06 87.1313 898.098 87.0895V89.2756C897.338 91.2043 895.787 92.7408 893.841 93.494H891.635ZM890.613 94.506H885.538C885.764 96.1032 887.06 97.624 889.226 98.8045C889.854 99.147 890.548 99.4559 891.298 99.7252C890.891 98.12 890.651 96.3566 890.613 94.506ZM892.456 100.097C891.971 98.4216 891.677 96.5256 891.635 94.506H893.841C895.787 95.2592 897.338 96.7957 898.098 98.7244V100.91C896.06 100.869 894.147 100.578 892.456 100.097ZM891.637 100.908C890.577 100.574 889.601 100.164 888.734 99.6913C887.66 99.1061 886.732 98.4115 886.02 97.629C887.267 101.884 890.652 105.238 894.947 106.474C894.157 105.768 893.456 104.85 892.865 103.786C892.388 102.926 891.975 101.959 891.637 100.908ZM898.098 106.952C896.486 106.728 894.952 105.444 893.76 103.298C893.415 102.675 893.103 101.987 892.831 101.245C894.451 101.648 896.231 101.886 898.098 101.923V106.952ZM902.271 106.474C903.061 105.768 903.762 104.85 904.352 103.786C904.829 102.926 905.243 101.959 905.581 100.908C906.641 100.574 907.617 100.164 908.484 99.6913C909.558 99.1061 910.485 98.4115 911.198 97.629C909.95 101.884 906.566 105.238 902.271 106.474ZM904.387 101.245C904.115 101.987 903.803 102.675 903.457 103.298C902.266 105.444 900.731 106.728 899.12 106.952V101.923C900.987 101.886 902.767 101.648 904.387 101.245ZM905.92 99.7252C906.669 99.4559 907.364 99.147 907.992 98.8045C910.158 97.624 911.453 96.1032 911.68 94.506H906.604C906.567 96.3566 906.327 98.12 905.92 99.7252ZM905.583 94.506C905.541 96.5256 905.247 98.4216 904.761 100.097C903.071 100.578 901.158 100.869 899.12 100.91V98.726C899.88 96.7966 901.431 95.2594 903.378 94.506H905.583ZM906.604 93.494H911.68C911.453 91.8968 910.158 90.376 907.992 89.1955C907.364 88.853 906.669 88.5441 905.92 88.2748C906.327 89.88 906.567 91.6434 906.604 93.494ZM904.761 87.9031C905.247 89.5784 905.541 91.4744 905.583 93.494H903.378C901.431 92.7406 899.88 91.2034 899.12 89.2739V87.0895C901.158 87.1313 903.071 87.4221 904.761 87.9031ZM905.581 87.0916C906.641 87.4264 907.617 87.836 908.484 88.3087C909.558 88.8939 910.485 89.5885 911.198 90.371C909.95 86.1158 906.566 82.7617 902.271 81.5258C903.061 82.2316 903.762 83.1504 904.352 84.2145C904.829 85.0739 905.243 86.0407 905.581 87.0916ZM899.12 81.0476C900.731 81.2724 902.266 82.5558 903.457 84.7022C903.803 85.3248 904.115 86.0126 904.387 86.7553C902.767 86.3519 900.987 86.1141 899.12 86.0773V81.0476Z" fill="#3D3D3D"/>
</g>
<g clip-path="url(#clip7_8251_34180)">
<path d="M1077.18 108C1085.01 108 1091.36 101.732 1091.36 94V84.2C1091.36 83.0861 1090.91 82.0178 1090.12 81.2302C1089.32 80.4425 1088.24 80 1087.11 80H1077.89V86.1418C1077.89 87.5432 1077.98 88.995 1078.72 90.1878C1079.25 91.0426 1079.97 91.7743 1080.81 92.3332C1081.66 92.892 1082.61 93.265 1083.62 93.4267L1083.89 93.4701C1084 93.5079 1084.1 93.5793 1084.17 93.6743C1084.23 93.7693 1084.27 93.8832 1084.27 94C1084.27 94.1168 1084.23 94.2307 1084.17 94.3257C1084.1 94.4207 1084 94.4921 1083.89 94.5299L1083.62 94.5733C1082.15 94.8098 1080.8 95.4949 1079.75 96.532C1078.69 97.5691 1078 98.9057 1077.76 100.353L1077.72 100.621C1077.68 100.732 1077.61 100.828 1077.51 100.896C1077.41 100.964 1077.3 101 1077.18 101C1077.06 101 1076.95 100.964 1076.85 100.896C1076.75 100.828 1076.68 100.732 1076.64 100.621L1076.6 100.353C1076.44 99.3625 1076.06 98.4182 1075.49 97.5844C1074.93 96.7505 1074.18 96.0466 1073.32 95.5204C1072.11 94.7854 1070.64 94.7 1069.22 94.7H1063.02C1063.39 102.107 1069.59 108 1077.18 108Z" fill="#3D3D3D"/>
<path d="M1063 93.3H1069.22C1070.64 93.3 1072.11 93.2146 1073.32 92.4796C1074.26 91.9051 1075.06 91.1202 1075.64 90.1878C1076.39 88.995 1076.47 87.5432 1076.47 86.1418V80H1067.25C1066.13 80 1065.04 80.4425 1064.25 81.2302C1063.45 82.0178 1063 83.0861 1063 84.2V93.3ZM1095.94 81.4C1095.94 81.7713 1095.79 82.1274 1095.53 82.3899C1095.26 82.6525 1094.9 82.8 1094.52 82.8C1094.15 82.8 1093.79 82.6525 1093.52 82.3899C1093.25 82.1274 1093.1 81.7713 1093.1 81.4C1093.1 81.0287 1093.25 80.6726 1093.52 80.4101C1093.79 80.1475 1094.15 80 1094.52 80C1094.9 80 1095.26 80.1475 1095.53 80.4101C1095.79 80.6726 1095.94 81.0287 1095.94 81.4ZM1213.12 88.4728C1217.09 88.4728 1219 91.2063 1219 94.3724V100.319H1214.85V95.078C1214.85 93.643 1214.32 92.4586 1212.8 92.4586C1211.28 92.4586 1210.77 93.643 1210.77 95.078V100.318H1206.62V95.078C1206.62 93.643 1206.12 92.4586 1204.59 92.4586C1203.07 92.4586 1202.54 93.643 1202.54 95.078V100.318H1198.39V94.3717C1198.39 91.2056 1200.31 88.4721 1204.27 88.4721C1206.44 88.4721 1208.01 89.3149 1208.72 90.7044C1209.48 89.3149 1211.14 88.4714 1213.12 88.4714V88.4728ZM1190.94 96.674C1192.28 96.674 1192.85 95.4665 1192.85 94.0308V88.9278H1197V94.532C1197 97.8808 1195.02 100.661 1190.94 100.661C1186.86 100.661 1184.88 97.8815 1184.88 94.532V88.9278H1189.03V94.0308C1189.03 95.4658 1189.6 96.674 1190.94 96.674ZM1178.78 100.683C1176.17 100.683 1174.49 99.7946 1173.5 98.0635L1176.49 96.4003C1176.91 97.129 1177.53 97.4937 1178.57 97.4937C1179.42 97.4937 1179.81 97.1976 1179.81 96.8329C1179.81 95.4434 1173.73 96.856 1173.73 92.4369C1173.73 90.2949 1175.57 88.5638 1178.71 88.5638C1181.45 88.5638 1182.95 89.8847 1183.62 91.1608L1180.62 92.8464C1180.37 92.1632 1179.58 91.753 1178.8 91.753C1178.2 91.753 1177.88 92.0036 1177.88 92.3452C1177.88 93.7578 1183.96 92.4593 1183.96 96.7419C1183.96 99.1338 1181.59 100.683 1178.78 100.683ZM1164.28 105.558H1160.13V94.6006C1160.13 91.1146 1162.78 88.5862 1166.47 88.5862C1170.07 88.5862 1172.81 91.2973 1172.81 94.6006C1172.81 98.2455 1170.37 100.661 1166.7 100.661C1165.85 100.661 1165 100.41 1164.28 100.022V105.558ZM1166.47 96.8105C1167.79 96.8105 1168.66 95.8081 1168.66 94.623C1168.66 93.4162 1167.79 92.4362 1166.47 92.4362C1165.16 92.4362 1164.28 93.4162 1164.28 94.6237C1164.28 95.8081 1165.16 96.8105 1166.47 96.8105ZM1155.98 87.721C1154.62 87.721 1153.49 86.6045 1153.49 85.2605C1153.49 83.9165 1154.62 82.8 1155.98 82.8C1157.34 82.8 1158.47 83.9165 1158.47 85.2605C1158.47 86.6045 1157.34 87.721 1155.98 87.721ZM1153.9 88.9278H1158.05V100.319H1153.9V88.9278ZM1145.94 100.661C1142.35 100.661 1139.6 97.927 1139.6 94.6006C1139.6 91.2973 1142.35 88.5638 1145.94 88.5638C1149.54 88.5638 1152.28 91.2973 1152.28 94.6006C1152.28 97.927 1149.54 100.661 1145.94 100.661ZM1145.94 96.8105C1147.26 96.8105 1148.13 95.8081 1148.13 94.623C1148.13 93.4162 1147.26 92.4138 1145.94 92.4138C1144.63 92.4138 1143.75 93.4162 1143.75 94.623C1143.75 95.8081 1144.63 96.8105 1145.94 96.8105ZM1131.77 105.9C1128.91 105.9 1126.84 104.647 1125.78 102.414L1129.21 100.592C1129.58 101.367 1130.27 102.164 1131.7 102.164C1133.2 102.164 1134.19 101.23 1134.31 99.5895C1133.75 100.068 1132.88 100.432 1131.56 100.432C1128.36 100.432 1125.78 97.9949 1125.78 94.5775C1125.78 91.2749 1128.52 88.5862 1132.12 88.5862C1135.8 88.5862 1138.45 91.1153 1138.45 94.6006V99.1114C1138.45 103.212 1135.57 105.9 1131.77 105.9ZM1132.05 96.583C1133.29 96.583 1134.24 95.7395 1134.24 94.4865C1134.24 93.2566 1133.29 92.4362 1132.05 92.4362C1130.82 92.4362 1129.86 93.2566 1129.86 94.4872C1129.86 95.7402 1130.82 96.5823 1132.05 96.5823V96.583ZM1118.74 100.661C1115.14 100.661 1112.4 97.927 1112.4 94.6006C1112.4 91.2973 1115.14 88.5638 1118.74 88.5638C1122.33 88.5638 1125.08 91.2973 1125.08 94.6006C1125.08 97.927 1122.34 100.661 1118.74 100.661ZM1118.74 96.8105C1120.05 96.8105 1120.93 95.8081 1120.93 94.623C1120.93 93.4162 1120.05 92.4138 1118.74 92.4138C1117.43 92.4138 1116.55 93.4162 1116.55 94.623C1116.55 95.8081 1117.43 96.8105 1118.74 96.8105ZM1104.85 84.942V96.4458H1111.71V100.319H1104.27C1101.64 100.319 1100.58 98.9518 1100.58 96.7874V84.942H1104.85Z" fill="#3D3D3D"/>
</g>
<defs>
<clipPath id="clip0_8251_34180">
<rect width="156" height="28" fill="white" transform="translate(213 12)"/>
</clipPath>
<clipPath id="clip1_8251_34180">
<rect width="154" height="28" fill="white" transform="translate(583 12)"/>
</clipPath>
<clipPath id="clip2_8251_34180">
<rect width="118" height="30" fill="white" transform="translate(809 11)"/>
</clipPath>
<clipPath id="clip3_8251_34180">
<rect width="154" height="28" fill="white" transform="translate(999 12)"/>
</clipPath>
<clipPath id="clip4_8251_34180">
<rect width="118" height="30" fill="white" transform="translate(293 79)"/>
</clipPath>
<clipPath id="clip5_8251_34180">
<rect width="119" height="30" fill="white" transform="translate(487.25 79)"/>
</clipPath>
<clipPath id="clip6_8251_34180">
<rect width="154" height="28" fill="white" transform="translate(832.75 80)"/>
</clipPath>
<clipPath id="clip7_8251_34180">
<rect width="156" height="28" fill="white" transform="translate(1063 80)"/>
</clipPath>
</defs>
</svg>
